<?xml version="1.0" encoding="utf-8"?>
<!-- Generator: Adobe Illustrator 22.1.0, SVG Export Plug-In . SVG Version: 6.00 Build 0)  -->
<svg version="1.1" id="Capa_1" xmlns="http://www.w3.org/2000/svg" xmlns:xlink="http://www.w3.org/1999/xlink" x="0px" y="0px"
	 viewBox="0 0 225.1 159.8" style="enable-background:new 0 0 225.1 159.8;" xml:space="preserve">
<style type="text/css">
	.st0{fill:url(#SVGID_1_);}
	.st1{fill:url(#SVGID_2_);}
	.st2{fill:url(#SVGID_3_);}
	.st3{fill:#0DDEA1;}
	.st4{fill:#0098FF;}
	.st5{fill:#272525;}
	.st6{fill:#0081FF;}
	.st7{fill:#FFFFFF;}
</style>
<g>
	<g>
		
			<linearGradient id="SVGID_1_" gradientUnits="userSpaceOnUse" x1="-16.4919" y1="2934.9722" x2="-16.4919" y2="2934.9722" gradientTransform="matrix(0.7071 -0.7071 0.7071 0.7071 -1961.7458 -2027.5084)">
			<stop  offset="0.3126" style="stop-color:#0081FF"/>
			<stop  offset="1" style="stop-color:#00A4FF"/>
		</linearGradient>
		<path class="st0" d="M101.9,59.5"/>
		<linearGradient id="SVGID_2_" gradientUnits="userSpaceOnUse" x1="69.9515" y1="76.2833" x2="73.1602" y2="-3.0796">
			<stop  offset="0.2588" style="stop-color:#0081FF"/>
			<stop  offset="0.7387" style="stop-color:#00A4FF"/>
		</linearGradient>
		<path class="st1" d="M126.5,83.2l-21.7-23c-3.8-3.7-9.9-3.7-13.7,0.1L68.9,82.2c-1.3,1.2-3.3,1.2-4.5,0L41.1,58.9
			c-1.3-1.3-1.3-3.3,0-4.5l24.6-24.6c1.2-1.2,3.2-1.3,4.5,0l6.3,5.9c1.3,1.2,3.2,1.2,4.5,0L92.7,24c1.3-1.2,1.3-3.3,0-4.5L77.6,4
			c-5.4-5.4-14.1-5.4-19.4,0L17.6,44.7c-6.6,6.6-6.6,17.3,0,24L56.9,108c5.4,5.4,14.1,5.4,19.4,0l18.9-18.8c1.5-1.5,4-1.5,5.6,0
			L111,99c1.6,1.5,4.1,1.5,5.6-0.1l10-10C128.1,87.4,128.1,84.8,126.5,83.2z"/>
		
			<linearGradient id="SVGID_3_" gradientUnits="userSpaceOnUse" x1="224.3178" y1="94.9148" x2="225.9226" y2="55.224" gradientTransform="matrix(-1 0 0 1 339.4323 0)">
			<stop  offset="0.2862" style="stop-color:#0081FF"/>
			<stop  offset="0.6183" style="stop-color:#00A4FF"/>
		</linearGradient>
		<path class="st2" d="M156.2,57.5l-24.9,25c-1.2,1.2-3.3,1.3-4.5,0l-22.1-22.2c-3.8-3.7-9.9-3.8-13.8,0.3L59.5,91.4
			c-1.6,1.6-1.6,4.1-0.1,5.7l11,11c1.5,1.5,4,1.6,5.6,0.1l18.9-18.7c1.6-1.5,4-1.5,5.6,0l18.9,18.8c5.4,5.4,14.1,5.4,19.4,0
			l30.6-30.6c2.3-2.3,2.2-6-0.2-8.2L156.2,57.5z"/>
		<path class="st3" d="M165.1,44.7l-8.3-8.3l-10.9,10.9l10.4,10.4l8.8-8.8C166.2,47.7,166.2,45.8,165.1,44.7z"/>
		<path class="st4" d="M165.5,23.4l-8.3-8.3L146.3,26l10.4,10.4l8.8-8.8C166.7,26.4,166.7,24.6,165.5,23.4z"/>
		<path class="st4" d="M143.8,45.1l-8.3-8.3l-10.9,10.9L135,58.1l8.8-8.8C144.9,48.1,144.9,46.3,143.8,45.1z"/>
	</g>
	<path class="st5" d="M53,125.6c-1.7-2.3-4.6-3.4-8.5-3.4c-7.7,0-13.9,5.1-15.6,12.8c-0.8,3.8-0.2,7,1.7,9.4c1.9,2.3,5,3.6,8.9,3.6
		c4.4,0,8.4-1.5,11.6-4.4l0.5-0.4l-3.6-4.7l-0.5,0.4c-1.9,1.5-4.1,2.4-6.2,2.4c-2.5,0-4.1-1.3-4.4-3.5h16.9l0.1-0.5
		C55.3,132.3,55,128.2,53,125.6z M43.5,128.5c1.3,0,2.3,0.4,3,1.1c0.6,0.7,0.8,1.6,0.7,2.8h-9.3C39.1,130,41.1,128.5,43.5,128.5z"/>
	<path class="st5" d="M74.7,122.2c-2.9,0-5.6,1-7.7,3l0.6-2.8h-8.2L54,147.7h8.2l2.5-12c0.8-3.9,3.9-6.2,9.8-6.1
		c0.6-2.8,1.7-7.4,1.7-7.4L74.7,122.2z"/>
	<polygon class="st5" points="89.7,147.7 97.9,147.7 103.2,122.4 95,122.4 	"/>
	<path class="st5" d="M104.1,113c-0.7-0.8-1.7-1.2-2.9-1.2c-2.5,0-4.6,1.8-5.1,4.3c-0.3,1.3-0.1,2.5,0.6,3.4
		c0.7,0.8,1.7,1.2,2.9,1.2c2.5,0,4.6-1.8,5.1-4.3C105,115,104.8,113.8,104.1,113z"/>
	<path class="st6" d="M148.6,125c-1.5-1.9-4.2-2.8-7.8-2.8c-4.1,0-7.9,0.8-11.3,2.2c-0.6,3.3-1.7,6.8-1.7,6.8s6.3-2.2,10.3-2.3
		c1.5,0,2.6,0.3,3.2,1c0.4,0.5,0.5,1.2,0.3,2.1h-6.1c-6.1,0-10.2,2.9-11.3,7.7c-0.5,2.3-0.1,4.3,1.1,5.8c1.3,1.6,3.4,2.5,6.2,2.5
		c2.7,0,5.2-0.7,7.1-2.1l-0.4,1.8h8.1l3.4-16.1C150.4,128.9,150,126.6,148.6,125z M134.6,141.8c-1,0-1.8-0.3-2.2-0.8
		c-0.3-0.4-0.4-0.9-0.3-1.5c0.2-1.1,0.9-2.2,3.8-2.2h4.6l-0.3,1.3C139.5,140.4,137.1,141.8,134.6,141.8z"/>
	<path class="st5" d="M115.4,131.6c-2.2-0.7-3.5-1.2-3.3-1.9c0.2-1.1,1.7-1.2,2.5-1.3c1.6-0.2,6.1,1.2,8.3,2.6
		c0.5-1.8,1.8-6.6,1.8-6.6c-2.3-1.3-5.7-2.3-9.1-2.3c-6.1,0-10.3,3.1-11.3,7.9c-1.2,5.6,3.5,7.1,6.9,8.1c2.4,0.8,3.6,1.2,3.4,2.1
		c-0.3,1.2-2,1.4-2.8,1.3c-4.4-0.1-8.4-3.4-9.8-4.9l-1.8,7.7c2.3,2.1,6.3,3.5,10.3,3.5c6.2,0,10.9-3.1,12-8
		C123.7,134.2,118.7,132.7,115.4,131.6z"/>
	<path class="st5" d="M190.2,131.6c-2.2-0.7-3.5-1.2-3.3-1.9c0.2-1.1,1.7-1.2,2.5-1.3c1.6-0.2,6.1,1.2,8.3,2.6
		c0.6-2,1.8-6.6,1.8-6.6c-2.3-1.3-5.7-2.3-9.1-2.3c-6.1,0-10.3,3.1-11.3,7.9c-1.2,5.6,3.5,7.1,6.9,8.1c2.4,0.8,3.6,1.2,3.4,2.1
		c-0.3,1.2-2,1.4-2.8,1.3c-4.4-0.1-8.4-3.4-9.8-4.9l-1.8,7.7c2.3,2.1,6.3,3.5,10.3,3.5c6.2,0,10.9-3.1,12-8
		C198.5,134.2,193.5,132.7,190.2,131.6z"/>
	<g>
		<path class="st5" d="M101.9,154.6c0.1-0.3,0.3-0.5,0.5-0.8c0.2-0.2,0.4-0.5,0.7-0.7c0.3-0.2,0.5-0.3,0.8-0.4
			c0.5-0.2,1-0.2,1.5-0.1c0.2,0,0.4,0.1,0.5,0.2c0.2,0.1,0.3,0.2,0.4,0.4c0.1,0.2,0.2,0.4,0.3,0.6l0.1,0.2l0.8-0.4l0-0.1
			c-0.1-0.3-0.2-0.5-0.3-0.7c-0.1-0.2-0.3-0.4-0.5-0.6c-0.2-0.2-0.5-0.3-0.7-0.4c-0.3-0.1-0.6-0.1-0.9-0.1c-0.7,0-1.3,0.1-1.8,0.4
			c-0.5,0.3-1,0.7-1.4,1.1c-0.4,0.5-0.7,1-0.9,1.5c-0.2,0.6-0.3,1.1-0.3,1.7c0,0.4,0.1,0.8,0.2,1.2c0.1,0.4,0.3,0.8,0.5,1.1
			c0.2,0.3,0.5,0.6,0.9,0.8c0.4,0.2,0.8,0.3,1.2,0.3c0.3,0,0.6,0,0.9-0.1c0.3-0.1,0.6-0.2,0.9-0.4c0.3-0.2,0.6-0.4,0.9-0.6
			c0.3-0.2,0.5-0.5,0.7-0.8l0.1-0.2l-0.8-0.4l-0.1,0.1c-0.2,0.2-0.4,0.5-0.6,0.6c-0.2,0.2-0.4,0.3-0.6,0.4c-0.2,0.1-0.4,0.2-0.7,0.3
			c-0.6,0.1-1.1,0.1-1.5-0.1c-0.3-0.1-0.5-0.3-0.6-0.5c-0.2-0.2-0.3-0.5-0.4-0.8c-0.1-0.3-0.1-0.6-0.1-1c0-0.3,0-0.6,0.1-0.9
			C101.7,155.2,101.8,154.9,101.9,154.6z"/>
		<path class="st5" d="M109.3,157.1c0.3,0,0.5,0,0.7,0c2.1,0,3.1-0.6,3.1-1.8c0-0.3-0.1-0.5-0.2-0.7c-0.1-0.2-0.3-0.4-0.4-0.5
			c-0.2-0.1-0.4-0.2-0.6-0.3c-0.2-0.1-0.5-0.1-0.7-0.1c-0.5,0-1,0.1-1.4,0.3c-0.4,0.2-0.8,0.5-1.1,0.8c-0.3,0.3-0.6,0.7-0.7,1.2
			c-0.2,0.4-0.3,0.9-0.3,1.3c0,0.3,0.1,0.7,0.2,1c0.1,0.3,0.3,0.6,0.4,0.8c0.2,0.2,0.4,0.4,0.7,0.6c0.3,0.1,0.6,0.2,1,0.2
			c0.3,0,0.5,0,0.8-0.1c0.3-0.1,0.5-0.2,0.7-0.3c0.2-0.1,0.4-0.3,0.6-0.5c0.2-0.2,0.4-0.4,0.5-0.6l0.1-0.2l-0.8-0.3l-0.1,0.1
			c-0.1,0.2-0.2,0.3-0.3,0.4c-0.1,0.1-0.3,0.2-0.4,0.3c-0.2,0.1-0.3,0.2-0.5,0.2c-0.4,0.1-0.9,0.1-1.2-0.1c-0.2-0.1-0.3-0.2-0.5-0.4
			s-0.2-0.3-0.3-0.6c-0.1-0.2-0.1-0.5-0.1-0.7c0-0.1,0-0.1,0-0.2C108.8,157.1,109.1,157.1,109.3,157.1z M111.8,156
			c-0.2,0.1-0.4,0.2-0.7,0.2c-0.4,0.1-1.1,0.1-1.8,0.1c-0.2,0-0.4,0-0.6,0c0.1-0.2,0.2-0.4,0.3-0.6c0.1-0.2,0.3-0.5,0.5-0.7
			s0.4-0.3,0.7-0.5c0.4-0.2,0.8-0.2,1.3-0.1c0.1,0,0.3,0.1,0.3,0.2c0.1,0.1,0.2,0.2,0.2,0.3c0.1,0.1,0.1,0.2,0.1,0.4
			c0,0.1,0,0.3-0.1,0.4C112.1,155.9,111.9,156,111.8,156z"/>
		<path class="st5" d="M117.2,153.8c-0.4,0-0.8,0.1-1.2,0.4c-0.2,0.1-0.4,0.3-0.6,0.5l0.2-0.9h-0.9l-1.3,6h0.9l0.8-3.6
			c0.2-0.5,0.5-0.8,0.9-1.1c0.4-0.3,0.8-0.4,1.2-0.4l0.1,0l0.2-0.8l-0.2,0C117.4,153.8,117.3,153.8,117.2,153.8z"/>
		<path class="st5" d="M119.5,154.6h1.2l0.2-0.8h-1.2l0.4-1.9h-0.9l-0.4,1.9H118l-0.2,0.8h0.8l-0.9,4c0,0,0,0.1,0,0.1
			c0,0,0,0.1,0,0.1c0,0.3,0.1,0.6,0.3,0.7c0.2,0.2,0.4,0.2,0.7,0.2c0.2,0,0.3,0,0.4,0c0.1,0,0.3-0.1,0.4-0.1c0.1,0,0.2-0.1,0.3-0.1
			c0.1,0,0.1-0.1,0.2-0.1l0.1-0.1l-0.1-0.8l-0.2,0.2c0,0,0,0-0.1,0c-0.1,0-0.1,0.1-0.2,0.1c-0.1,0-0.1,0.1-0.2,0.1
			c-0.2,0-0.4,0-0.5-0.1c0,0-0.1-0.1-0.1-0.2c0,0,0-0.1,0.1-0.4L119.5,154.6z"/>
		<polygon class="st5" points="120.8,159.7 121.8,159.7 123,153.8 122.1,153.8 		"/>
		<polygon class="st5" points="122.6,151.5 122.3,152.9 123.2,152.9 123.5,151.5 		"/>
		<path class="st5" d="M125.8,153.2c0.1-0.2,0.2-0.3,0.3-0.5c0.1-0.1,0.3-0.3,0.4-0.4c0.3-0.2,0.8-0.2,1.1,0
			c0.2,0.1,0.3,0.1,0.3,0.2l0.1,0.2l0.6-0.7l-0.3-0.3c-0.1-0.1-0.2-0.1-0.3-0.2c-0.1-0.1-0.3-0.1-0.4-0.1c-0.2,0-0.3-0.1-0.5-0.1
			c-0.4,0-0.7,0.1-1,0.2c-0.3,0.1-0.5,0.3-0.7,0.6c-0.2,0.2-0.4,0.5-0.5,0.8c-0.1,0.3-0.2,0.5-0.3,0.8l0,0H124l-0.2,0.8h0.7
			l-1.1,5.2h0.9l1.1-5.2h1.7l-1.1,5.2h0.9l1.3-6h-2.6C125.7,153.6,125.8,153.4,125.8,153.2z"/>
		<path class="st5" d="M130.4,155.3c0.2-0.2,0.5-0.4,0.8-0.6c0.6-0.3,1.2-0.3,1.7,0c0.2,0.2,0.4,0.4,0.4,0.6l0.1,0.2l0.9-0.3l0-0.2
			c-0.1-0.5-0.3-0.8-0.7-1.1c-0.4-0.3-0.8-0.4-1.3-0.4c-0.5,0-0.9,0.1-1.3,0.3c-0.4,0.2-0.8,0.5-1.1,0.8c-0.3,0.3-0.6,0.7-0.8,1.1
			c-0.2,0.4-0.3,0.9-0.3,1.4c0,0.3,0.1,0.7,0.2,1c0.1,0.3,0.3,0.6,0.5,0.8c0.2,0.2,0.4,0.4,0.7,0.6c0.3,0.1,0.6,0.2,1,0.2
			c0.3,0,0.5,0,0.8-0.1c0.3-0.1,0.5-0.2,0.7-0.3c0.2-0.1,0.4-0.3,0.6-0.5c0.2-0.2,0.3-0.4,0.5-0.6l0.1-0.2l-0.9-0.3l-0.1,0.1
			c-0.1,0.1-0.2,0.2-0.3,0.3c-0.1,0.1-0.3,0.2-0.4,0.3c-0.2,0.1-0.3,0.2-0.5,0.2c-0.4,0.1-0.8,0.1-1.1-0.1c-0.2-0.1-0.3-0.2-0.4-0.4
			c-0.1-0.2-0.2-0.3-0.3-0.6c-0.1-0.2-0.1-0.5-0.1-0.7c0-0.4,0.1-0.7,0.2-1C130,155.9,130.2,155.6,130.4,155.3z"/>
		<path class="st5" d="M140.7,153.8h-0.9l-0.2,0.8c0,0,0,0,0,0c-0.1-0.2-0.3-0.3-0.4-0.5s-0.4-0.2-0.6-0.3c-0.2-0.1-0.4-0.1-0.7-0.1
			c-0.4,0-0.9,0.1-1.3,0.3c-0.4,0.2-0.7,0.5-1,0.8c-0.3,0.3-0.5,0.7-0.7,1.2c-0.2,0.4-0.3,0.9-0.3,1.3c0,0.3,0,0.7,0.1,1
			c0.1,0.3,0.2,0.6,0.4,0.8c0.2,0.2,0.4,0.4,0.7,0.6c0.3,0.1,0.6,0.2,0.9,0.2c0.4,0,0.9-0.1,1.3-0.4c0.2-0.1,0.5-0.3,0.7-0.5
			c0,0,0,0,0,0.1c0,0,0,0.1,0,0.1c0,0.2,0.1,0.3,0.2,0.4c0.1,0.1,0.3,0.2,0.5,0.2c0,0,0.1,0,0.1,0l0.2,0l0.1-0.6l0-0.2h-0.2
			c0,0,0,0,0-0.1L140.7,153.8z M137.5,158.9c-0.5,0.2-0.8,0.1-1.1,0c-0.2-0.1-0.3-0.2-0.5-0.4c-0.1-0.2-0.2-0.3-0.3-0.6
			c-0.1-0.2-0.1-0.4-0.1-0.7c0-0.3,0.1-0.6,0.2-1c0.1-0.3,0.3-0.6,0.5-0.9s0.5-0.5,0.8-0.6c0.3-0.2,0.6-0.2,0.9-0.2
			c0.2,0,0.4,0,0.5,0.1c0.2,0.1,0.3,0.2,0.4,0.3c0.1,0.1,0.2,0.3,0.3,0.4c0.1,0.1,0.1,0.3,0.2,0.5l-0.4,1.8
			c-0.1,0.2-0.2,0.3-0.3,0.5c-0.2,0.2-0.3,0.3-0.5,0.4C137.9,158.7,137.7,158.8,137.5,158.9z"/>
		<path class="st5" d="M146.3,158.8l1.6-7.3h-0.9l-0.7,3.1c0,0,0,0,0,0c-0.1-0.2-0.3-0.3-0.4-0.5s-0.4-0.2-0.6-0.3
			c-0.2-0.1-0.4-0.1-0.7-0.1c-0.4,0-0.9,0.1-1.3,0.3c-0.4,0.2-0.8,0.5-1.1,0.8c-0.3,0.3-0.5,0.7-0.7,1.2c-0.2,0.4-0.3,0.9-0.3,1.3
			c0,0.3,0,0.7,0.1,1c0.1,0.3,0.2,0.6,0.4,0.8c0.2,0.2,0.4,0.4,0.7,0.6c0.3,0.1,0.6,0.2,0.9,0.2c0.4,0,0.9-0.1,1.3-0.4
			c0.2-0.1,0.5-0.3,0.7-0.5l0,0c0,0,0,0.1,0,0.1c0,0.3,0.2,0.5,0.6,0.6h0.1c0,0,0.1,0,0.2,0l0.1,0l0.1-0.6l0-0.2L146.3,158.8
			C146.2,158.9,146.3,158.8,146.3,158.8z M144.1,158.9c-0.5,0.2-0.8,0.1-1.1,0c-0.2-0.1-0.3-0.2-0.5-0.4c-0.1-0.2-0.2-0.4-0.3-0.6
			c-0.1-0.2-0.1-0.5-0.1-0.7c0-0.3,0.1-0.6,0.2-0.9c0.1-0.3,0.3-0.6,0.5-0.9c0.2-0.3,0.5-0.5,0.8-0.6c0.3-0.2,0.6-0.2,0.9-0.2
			c0.2,0,0.3,0,0.5,0.1c0.2,0.1,0.3,0.2,0.4,0.3c0.1,0.1,0.2,0.3,0.3,0.4c0.1,0.2,0.1,0.3,0.2,0.5l-0.4,1.8
			c-0.1,0.2-0.2,0.3-0.3,0.5c-0.2,0.2-0.3,0.3-0.5,0.5C144.6,158.7,144.4,158.8,144.1,158.9z"/>
		<path class="st5" d="M152.9,154.4c-0.2-0.2-0.4-0.4-0.7-0.6c-0.6-0.3-1.5-0.3-2.3,0.1c-0.4,0.2-0.8,0.5-1.1,0.8
			c-0.3,0.3-0.6,0.7-0.8,1.2c-0.2,0.4-0.3,0.9-0.3,1.4c0,0.3,0.1,0.7,0.2,1c0.1,0.3,0.3,0.6,0.4,0.8c0.2,0.2,0.4,0.4,0.7,0.6
			c0.3,0.1,0.6,0.2,0.9,0.2c0.5,0,0.9-0.1,1.3-0.3c0.4-0.2,0.8-0.5,1.1-0.8c0.3-0.3,0.6-0.7,0.8-1.2c0.2-0.4,0.3-0.9,0.3-1.4
			c0-0.3-0.1-0.7-0.2-1C153.3,154.9,153.1,154.7,152.9,154.4z M152.6,156.3c0,0.4-0.1,0.7-0.2,1c-0.1,0.3-0.3,0.6-0.6,0.9
			c-0.2,0.2-0.5,0.4-0.8,0.6c-0.5,0.2-1,0.3-1.4,0.1c-0.2-0.1-0.3-0.2-0.4-0.4c-0.1-0.2-0.2-0.3-0.3-0.5c-0.1-0.2-0.1-0.4-0.1-0.7
			c0-0.4,0.1-0.7,0.2-1c0.1-0.3,0.3-0.6,0.6-0.9c0.2-0.3,0.5-0.5,0.8-0.6c0.3-0.1,0.6-0.2,0.9-0.2c0.2,0,0.4,0,0.6,0.1
			c0.2,0.1,0.3,0.2,0.4,0.4c0.1,0.2,0.2,0.3,0.3,0.6C152.6,155.8,152.6,156,152.6,156.3z"/>
		<path class="st5" d="M156,154.8c0.1-0.1,0.3-0.2,0.5-0.2c0.4-0.1,1-0.1,1.4,0.1c0.2,0.1,0.4,0.2,0.5,0.4l0.1,0.2l0.6-0.5l-0.1-0.1
			c-0.1-0.3-0.4-0.5-0.7-0.6c-0.3-0.2-0.7-0.2-1.1-0.2c-0.3,0-0.6,0-0.9,0.1c-0.3,0.1-0.6,0.2-0.8,0.4c-0.2,0.2-0.4,0.4-0.6,0.7
			c-0.1,0.3-0.2,0.6-0.2,0.9c0,0.2,0,0.4,0.1,0.5c0.1,0.1,0.2,0.3,0.3,0.4c0.1,0.1,0.3,0.2,0.5,0.2c0.2,0.1,0.4,0.1,0.7,0.2
			c0.5,0.1,0.8,0.2,1,0.4c0.2,0.1,0.3,0.2,0.3,0.4c0,0.2,0,0.3-0.1,0.5c-0.1,0.1-0.2,0.3-0.3,0.4c-0.1,0.1-0.3,0.2-0.5,0.2
			c-0.5,0.1-1.1,0.1-1.5-0.1c-0.3-0.1-0.5-0.3-0.7-0.6l-0.1-0.2l-0.6,0.6l0.1,0.1c0.2,0.3,0.5,0.6,0.9,0.7c0.4,0.2,0.8,0.2,1.2,0.2
			c0.4,0,0.7,0,1-0.1c0.3-0.1,0.6-0.2,0.8-0.4c0.2-0.2,0.4-0.4,0.6-0.7c0.1-0.3,0.2-0.5,0.2-0.9c0-0.2,0-0.4-0.1-0.6
			c-0.1-0.2-0.2-0.3-0.4-0.4c-0.2-0.1-0.4-0.2-0.6-0.3c-0.2-0.1-0.5-0.1-0.8-0.2c-0.2,0-0.4-0.1-0.5-0.1c-0.1,0-0.2-0.1-0.3-0.1
			c-0.1,0-0.1-0.1-0.2-0.2c0-0.1,0-0.1,0-0.2c0-0.2,0-0.4,0.1-0.5C155.8,155,155.9,154.9,156,154.8z"/>
		<polygon class="st5" points="167.7,156.1 167.9,155.2 164.3,155.2 164.8,152.6 169,152.6 169.2,151.7 164.1,151.7 162.4,159.7 
			167.6,159.7 167.8,158.9 163.5,158.9 164.1,156.1 		"/>
		<path class="st5" d="M170,158.5l1.5-7h-0.9l-1.5,7.1c0,0.1,0,0.2,0,0.3c0,0.3,0.1,0.5,0.3,0.7c0.2,0.2,0.4,0.3,0.7,0.3
			c0.1,0,0.3,0,0.5-0.1c0.2,0,0.4-0.1,0.5-0.1l0.1,0v-0.8l-0.3,0.1c-0.1,0-0.2,0.1-0.3,0.1c-0.3,0-0.4,0-0.5-0.1
			c-0.1,0-0.1-0.1-0.1-0.2C170,158.6,170,158.6,170,158.5C170,158.5,170,158.5,170,158.5z"/>
		<path class="st5" d="M173.5,157.1c0.3,0,0.5,0,0.7,0c2.1,0,3.1-0.6,3.1-1.8c0-0.3-0.1-0.5-0.2-0.7c-0.1-0.2-0.3-0.4-0.4-0.5
			c-0.2-0.1-0.4-0.2-0.6-0.3c-0.2-0.1-0.5-0.1-0.7-0.1c-0.5,0-1,0.1-1.4,0.3c-0.4,0.2-0.8,0.5-1.1,0.8c-0.3,0.3-0.6,0.7-0.7,1.2
			c-0.2,0.4-0.3,0.9-0.3,1.3c0,0.3,0.1,0.7,0.2,1c0.1,0.3,0.3,0.6,0.4,0.8c0.2,0.2,0.4,0.4,0.7,0.6c0.3,0.1,0.6,0.2,1,0.2
			c0.3,0,0.5,0,0.8-0.1c0.3-0.1,0.5-0.2,0.7-0.3c0.2-0.1,0.4-0.3,0.6-0.5c0.2-0.2,0.4-0.4,0.5-0.6l0.1-0.2l-0.8-0.3l-0.1,0.1
			c-0.1,0.2-0.2,0.3-0.3,0.4c-0.1,0.1-0.3,0.2-0.4,0.3c-0.2,0.1-0.3,0.2-0.5,0.2c-0.4,0.1-0.9,0.1-1.2-0.1c-0.2-0.1-0.3-0.2-0.5-0.4
			s-0.2-0.3-0.3-0.6c-0.1-0.2-0.1-0.5-0.1-0.7c0-0.1,0-0.1,0-0.2C173,157.1,173.3,157.1,173.5,157.1z M176,156
			c-0.2,0.1-0.4,0.2-0.7,0.2c-0.4,0.1-1.1,0.1-1.8,0.1c-0.2,0-0.4,0-0.6,0c0.1-0.2,0.2-0.4,0.3-0.6c0.1-0.2,0.3-0.5,0.5-0.7
			s0.4-0.3,0.7-0.5c0.4-0.2,0.8-0.2,1.3-0.1c0.1,0,0.3,0.1,0.3,0.2c0.1,0.1,0.2,0.2,0.2,0.3c0.1,0.1,0.1,0.2,0.1,0.4
			c0,0.1,0,0.3-0.1,0.4C176.3,155.9,176.1,156,176,156z"/>
		<path class="st5" d="M179.5,155.3c0.2-0.2,0.5-0.4,0.8-0.6c0.6-0.3,1.2-0.3,1.7,0c0.2,0.2,0.4,0.4,0.4,0.6l0.1,0.2l0.9-0.3l0-0.2
			c-0.1-0.5-0.3-0.8-0.7-1.1c-0.4-0.3-0.8-0.4-1.3-0.4c-0.5,0-0.9,0.1-1.3,0.3c-0.4,0.2-0.8,0.5-1.1,0.8c-0.3,0.3-0.6,0.7-0.8,1.1
			c-0.2,0.4-0.3,0.9-0.3,1.4c0,0.3,0.1,0.7,0.2,1c0.1,0.3,0.3,0.6,0.5,0.8c0.2,0.2,0.4,0.4,0.7,0.6c0.3,0.1,0.6,0.2,1,0.2
			c0.3,0,0.5,0,0.8-0.1c0.3-0.1,0.5-0.2,0.7-0.3c0.2-0.1,0.4-0.3,0.6-0.5c0.2-0.2,0.3-0.4,0.5-0.6l0.1-0.2l-0.9-0.3l-0.1,0.1
			c-0.1,0.1-0.2,0.2-0.3,0.3c-0.1,0.1-0.3,0.2-0.4,0.3c-0.2,0.1-0.3,0.2-0.5,0.2c-0.4,0.1-0.8,0.1-1.1-0.1c-0.2-0.1-0.3-0.2-0.4-0.4
			c-0.1-0.2-0.2-0.3-0.3-0.6c-0.1-0.2-0.1-0.5-0.1-0.7c0-0.4,0.1-0.7,0.2-1C179.1,155.9,179.3,155.6,179.5,155.3z"/>
		<path class="st5" d="M185.7,154.6h1.2l0.2-0.8h-1.2l0.4-1.9h-0.9l-0.4,1.9h-0.8l-0.2,0.8h0.8l-0.9,4c0,0,0,0.1,0,0.1
			c0,0,0,0.1,0,0.1c0,0.3,0.1,0.6,0.3,0.7c0.2,0.2,0.4,0.2,0.7,0.2c0.2,0,0.3,0,0.4,0c0.1,0,0.3-0.1,0.4-0.1c0.1,0,0.2-0.1,0.3-0.1
			c0.1,0,0.1-0.1,0.2-0.1l0.1-0.1l-0.1-0.8l-0.2,0.2c0,0,0,0-0.1,0c-0.1,0-0.1,0.1-0.2,0.1c-0.1,0-0.1,0.1-0.2,0.1
			c-0.2,0-0.4,0-0.5-0.1c0,0-0.1-0.1-0.1-0.2c0,0,0-0.1,0.1-0.4L185.7,154.6z"/>
		<path class="st5" d="M191.1,154.6l0.2-0.8l-0.2,0c0,0-0.1,0-0.2,0c-0.4,0-0.8,0.1-1.2,0.4c-0.2,0.1-0.4,0.3-0.6,0.5l0.2-0.9h-0.9
			l-1.3,6h0.9l0.8-3.6c0.2-0.5,0.5-0.8,0.9-1.1c0.4-0.3,0.8-0.4,1.2-0.4L191.1,154.6z"/>
		<polygon class="st5" points="196.1,151.5 194.9,151.5 193.9,152.7 194.5,153 		"/>
		<path class="st5" d="M196,154.4c-0.2-0.2-0.4-0.4-0.7-0.6c-0.6-0.3-1.5-0.3-2.3,0.1c-0.4,0.2-0.8,0.5-1.1,0.8
			c-0.3,0.3-0.6,0.7-0.8,1.2c-0.2,0.4-0.3,0.9-0.3,1.4c0,0.3,0.1,0.7,0.2,1c0.1,0.3,0.3,0.6,0.4,0.8c0.2,0.2,0.4,0.4,0.7,0.6
			c0.3,0.1,0.6,0.2,0.9,0.2c0.5,0,0.9-0.1,1.3-0.3c0.4-0.2,0.8-0.5,1.1-0.8c0.3-0.3,0.6-0.7,0.8-1.2c0.2-0.4,0.3-0.9,0.3-1.4
			c0-0.3-0.1-0.7-0.2-1C196.3,154.9,196.2,154.7,196,154.4z M195.6,156.3c0,0.4-0.1,0.7-0.2,1c-0.1,0.3-0.3,0.6-0.6,0.9
			c-0.2,0.2-0.5,0.4-0.8,0.6c-0.5,0.2-1,0.3-1.4,0.1c-0.2-0.1-0.3-0.2-0.4-0.4c-0.1-0.2-0.2-0.3-0.3-0.5c-0.1-0.2-0.1-0.4-0.1-0.7
			c0-0.4,0.1-0.7,0.2-1c0.1-0.3,0.3-0.6,0.6-0.9c0.2-0.3,0.5-0.5,0.8-0.6c0.3-0.1,0.6-0.2,0.9-0.2c0.2,0,0.4,0,0.6,0.1
			c0.2,0.1,0.3,0.2,0.4,0.4c0.1,0.2,0.2,0.3,0.3,0.6C195.6,155.8,195.6,156,195.6,156.3z"/>
		<path class="st5" d="M201.2,153.7c-0.3,0-0.5,0-0.8,0.1c-0.3,0.1-0.5,0.2-0.7,0.3c-0.2,0.1-0.5,0.3-0.7,0.5c0,0,0,0-0.1,0.1
			l0.2-0.9h-0.9l-1.3,6h0.9l0.8-3.6c0.1-0.2,0.3-0.4,0.4-0.6c0.2-0.2,0.4-0.4,0.6-0.5c0.2-0.1,0.4-0.3,0.6-0.3
			c0.2-0.1,0.4-0.1,0.6-0.1c0.3,0,0.7,0.1,0.7,0.9c0,0.1,0,0.3,0,0.4c0,0.2,0,0.3-0.1,0.5l-0.7,3.3h0.9l0.7-3.4
			c0-0.2,0.1-0.4,0.1-0.6c0-0.2,0-0.4,0-0.6c0-0.5-0.1-0.9-0.3-1.1C202.1,153.8,201.7,153.7,201.2,153.7z"/>
		<polygon class="st5" points="205,151.5 204.7,152.9 205.6,152.9 205.9,151.5 		"/>
		<polygon class="st5" points="203.2,159.7 204.2,159.7 205.4,153.8 204.5,153.8 		"/>
		<path class="st5" d="M207.6,155.3c0.2-0.2,0.5-0.4,0.8-0.6c0.6-0.3,1.2-0.3,1.7,0c0.2,0.2,0.4,0.4,0.4,0.6l0.1,0.2l0.9-0.3l0-0.2
			c-0.1-0.5-0.3-0.8-0.7-1.1c-0.4-0.3-0.8-0.4-1.3-0.4c-0.5,0-0.9,0.1-1.3,0.3c-0.4,0.2-0.8,0.5-1.1,0.8c-0.3,0.3-0.6,0.7-0.8,1.1
			c-0.2,0.4-0.3,0.9-0.3,1.4c0,0.3,0.1,0.7,0.2,1c0.1,0.3,0.3,0.6,0.5,0.8c0.2,0.2,0.4,0.4,0.7,0.6c0.3,0.1,0.6,0.2,1,0.2
			c0.3,0,0.5,0,0.8-0.1c0.3-0.1,0.5-0.2,0.7-0.3c0.2-0.1,0.4-0.3,0.6-0.5c0.2-0.2,0.3-0.4,0.5-0.6l0.1-0.2l-0.9-0.3l-0.1,0.1
			c-0.1,0.1-0.2,0.2-0.3,0.3c-0.1,0.1-0.3,0.2-0.4,0.3c-0.2,0.1-0.3,0.2-0.5,0.2c-0.4,0.1-0.8,0.1-1.1-0.1c-0.2-0.1-0.3-0.2-0.4-0.4
			c-0.1-0.2-0.2-0.3-0.3-0.6c-0.1-0.2-0.1-0.5-0.1-0.7c0-0.4,0.1-0.7,0.2-1C207.1,155.9,207.3,155.6,207.6,155.3z"/>
		<path class="st5" d="M216.8,154.4c-0.2-0.2-0.4-0.4-0.7-0.6c-0.6-0.3-1.5-0.3-2.3,0.1c-0.4,0.2-0.8,0.5-1.1,0.8
			c-0.3,0.3-0.6,0.7-0.8,1.2c-0.2,0.4-0.3,0.9-0.3,1.4c0,0.3,0.1,0.7,0.2,1c0.1,0.3,0.3,0.6,0.4,0.8c0.2,0.2,0.4,0.4,0.7,0.6
			c0.3,0.1,0.6,0.2,0.9,0.2c0.5,0,0.9-0.1,1.3-0.3c0.4-0.2,0.8-0.5,1.1-0.8c0.3-0.3,0.6-0.7,0.8-1.2c0.2-0.4,0.3-0.9,0.3-1.4
			c0-0.3-0.1-0.7-0.2-1C217.2,154.9,217,154.7,216.8,154.4z M216.5,156.3c0,0.4-0.1,0.7-0.2,1c-0.1,0.3-0.3,0.6-0.6,0.9
			c-0.2,0.2-0.5,0.4-0.8,0.6c-0.5,0.2-1,0.3-1.4,0.1c-0.2-0.1-0.3-0.2-0.4-0.4c-0.1-0.2-0.2-0.3-0.3-0.5c-0.1-0.2-0.1-0.4-0.1-0.7
			c0-0.4,0.1-0.7,0.2-1c0.1-0.3,0.3-0.6,0.6-0.9c0.2-0.3,0.5-0.5,0.8-0.6c0.3-0.1,0.6-0.2,0.9-0.2c0.2,0,0.4,0,0.6,0.1
			c0.2,0.1,0.3,0.2,0.4,0.4c0.1,0.2,0.2,0.3,0.3,0.6C216.5,155.8,216.5,156,216.5,156.3z"/>
		<path class="st5" d="M221.9,156.8c-0.2-0.1-0.4-0.2-0.6-0.3c-0.2-0.1-0.5-0.1-0.8-0.2c-0.2,0-0.4-0.1-0.5-0.1
			c-0.1,0-0.2-0.1-0.3-0.1c-0.1,0-0.1-0.1-0.2-0.2c0-0.1,0-0.1,0-0.2c0-0.2,0-0.4,0.1-0.5c0.1-0.1,0.2-0.3,0.3-0.4
			c0.1-0.1,0.3-0.2,0.5-0.2c0.4-0.1,1-0.1,1.4,0.1c0.2,0.1,0.4,0.2,0.5,0.4l0.1,0.2l0.6-0.5l-0.1-0.1c-0.1-0.3-0.4-0.5-0.7-0.6
			c-0.3-0.2-0.7-0.2-1.1-0.2c-0.3,0-0.6,0-0.9,0.1c-0.3,0.1-0.6,0.2-0.8,0.4c-0.2,0.2-0.4,0.4-0.6,0.7c-0.1,0.3-0.2,0.6-0.2,0.9
			c0,0.2,0,0.4,0.1,0.5c0.1,0.1,0.2,0.3,0.3,0.4c0.1,0.1,0.3,0.2,0.5,0.2c0.2,0.1,0.4,0.1,0.7,0.2c0.5,0.1,0.8,0.2,1,0.4
			c0.2,0.1,0.3,0.2,0.3,0.4c0,0.2,0,0.3-0.1,0.5c-0.1,0.1-0.2,0.3-0.3,0.4c-0.1,0.1-0.3,0.2-0.5,0.2c-0.2,0.1-0.4,0.1-0.7,0.1
			c-0.3,0-0.6-0.1-0.9-0.2c-0.3-0.1-0.5-0.3-0.7-0.6l-0.1-0.2l-0.6,0.6l0.1,0.1c0.2,0.3,0.5,0.6,0.9,0.7c0.4,0.2,0.8,0.2,1.2,0.2
			c0.4,0,0.7,0,1-0.1c0.3-0.1,0.6-0.2,0.8-0.4c0.2-0.2,0.4-0.4,0.6-0.7c0.1-0.3,0.2-0.5,0.2-0.9c0-0.2,0-0.4-0.1-0.6
			C222.2,157,222,156.9,221.9,156.8z"/>
	</g>
	<path class="st5" d="M222.6,148.6c0,0-27.2,0-32,0c7-1.5,8.8-7,8.8-10c2.8,0,25.7,0,25.7,0L222.6,148.6z"/>
	<g>
		<path class="st7" d="M200.1,144.8c-0.5,0-1,0.4-1.1,0.9c-0.1,0.3,0,0.5,0.1,0.7c0.1,0.2,0.3,0.3,0.6,0.3c0.5,0,1-0.4,1.1-0.9
			c0.1-0.3,0-0.5-0.1-0.7C200.6,144.9,200.3,144.8,200.1,144.8z"/>
		<path class="st7" d="M204.9,144.5c-0.3,0.3-0.6,0.5-1,0.5c-0.2,0-0.4-0.1-0.5-0.2c-0.1-0.2-0.2-0.5-0.1-0.9
			c0.2-0.7,0.7-1.1,1.2-1.1c0.4,0,0.6,0.1,0.8,0.4l0.1,0.1l1.5-0.8l0-0.1c-0.3-0.8-1-1.2-2.1-1.2c-1.6,0-2.9,1.1-3.3,2.6
			c-0.2,0.8-0.1,1.5,0.3,1.9c0.4,0.5,1,0.7,1.8,0.7c1.1,0,2-0.4,2.6-1.2l0.1-0.1L204.9,144.5L204.9,144.5z"/>
		<path class="st7" d="M211.7,142c-0.4-0.5-1.1-0.8-1.9-0.8c-1.7,0-3.1,1.1-3.5,2.6c-0.2,0.8-0.1,1.4,0.3,1.9
			c0.4,0.5,1.1,0.8,1.9,0.8c1.7,0,3.1-1.1,3.5-2.6C212.2,143.2,212.1,142.5,211.7,142z M208.1,143.9c0.2-0.7,0.7-1.2,1.3-1.2
			c0.2,0,0.4,0.1,0.6,0.2c0.2,0.2,0.2,0.5,0.1,0.9c-0.2,0.7-0.7,1.2-1.3,1.2c-0.2,0-0.4-0.1-0.6-0.2
			C208.1,144.6,208.1,144.3,208.1,143.9z"/>
		<path class="st7" d="M221,141.7c-0.3-0.3-0.7-0.5-1.2-0.5c-0.8,0-1.4,0.3-1.9,0.9c-0.2-0.6-0.7-0.9-1.5-0.9
			c-0.6,0-1.2,0.2-1.6,0.6l0.1-0.5h-1.9l-1.3,5.2h1.9l0.6-2.6c0.2-0.6,0.6-1.1,1.1-1.1c0.2,0,0.3,0.1,0.4,0.2
			c0.1,0.1,0.1,0.3,0.1,0.6l-0.7,2.8h1.9l0.6-2.6c0.2-0.6,0.6-1.1,1.1-1.1c0.2,0,0.3,0.1,0.4,0.2c0.1,0.1,0.1,0.3,0.1,0.6l-0.7,2.8
			h1.9l0.8-3.2C221.4,142.6,221.3,142.1,221,141.7z"/>
	</g>
	<path class="st5" d="M84.7,129.6h6.5l1.6-7.4h-6.5l1.1-5.3h-8.1l-4.8,22.9c-0.5,2.4-0.2,4.5,1,5.9c1.2,1.5,3.1,2.2,5.6,2.2
		c1.9,0,3.9-0.4,5.8-1.2l0,0c0,0,0,0,0.1,0c0.3-0.1,0.7-0.3,1-0.5l0.1-0.1c0.1,0,0.1-0.1,0.2-0.1l1.6-7.3c0,0-1.5,0.7-2.5,1.2
		l-0.3,0.1c-1.3,0.6-2.4,0.8-3.2,0.8c-0.5,0-0.8-0.1-1-0.3c-0.2-0.3-0.3-0.9-0.1-1.7L84.7,129.6z"/>
	<path class="st5" d="M24.9,136.3c0,0-4.1,4-9.2,4c-2.3,0-4.3-0.9-5.6-2.4c-1.3-1.6-1.8-3.9-1.2-6.4c1.1-5.1,5.8-9,10.9-9
		c2.6,0,5.2,1.4,6.7,3.8L27,127c0,0,3-4.1,6.2-5.7c-0.1-0.2-0.6-0.9-0.6-0.9c-2.5-3.3-7-5.4-11.7-5.4c-9.8,0-18.6,7-20.6,16.3
		c-1,4.6-0.1,8.8,2.4,11.9c2.5,3.1,6.5,4.8,11.2,4.8c3.9,0,8.6-1.6,12.4-4.2C24.8,140.9,24.9,136.3,24.9,136.3z"/>
	<path class="st6" d="M174.4,125c-1.5-1.9-4.2-2.8-7.8-2.8c-4.1,0-7.9,0.8-11.3,2.2c-0.6,3.3-1.7,6.8-1.7,6.8s6.3-2.2,10.3-2.3
		c1.5,0,2.6,0.3,3.2,1c0.4,0.5,0.5,1.2,0.3,2.1h-6.1c-6.1,0-10.2,2.9-11.3,7.7c-0.5,2.3-0.1,4.3,1.1,5.8c1.3,1.6,3.4,2.5,6.2,2.5
		c2.7,0,5.2-0.7,7.1-2.1l-0.4,1.8h8.1l3.4-16.1C176.1,128.9,175.7,126.6,174.4,125z M160.3,141.8c-1,0-1.8-0.3-2.2-0.8
		c-0.3-0.4-0.4-0.9-0.3-1.5c0.2-1.1,0.9-2.2,3.8-2.2h4.6l-0.3,1.3C165.3,140.4,162.9,141.8,160.3,141.8z"/>
</g>
</svg>
