<?xml version="1.0" encoding="utf-8"?>
<!-- Generator: Adobe Illustrator 22.1.0, SVG Export Plug-In . SVG Version: 6.00 Build 0)  -->
<svg version="1.1" id="Capa_1" xmlns="http://www.w3.org/2000/svg" xmlns:xlink="http://www.w3.org/1999/xlink" x="0px" y="0px"
	 viewBox="0 0 225.1 161.1" style="enable-background:new 0 0 225.1 161.1;" xml:space="preserve">
<style type="text/css">
	.st0{fill:url(#SVGID_1_);}
	.st1{fill:#FFFFFF;}
	.st2{fill:#ACDBE8;}
	.st3{fill:#0081FF;}
</style>
<g>
	
		<linearGradient id="SVGID_1_" gradientUnits="userSpaceOnUse" x1="-273.6521" y1="3555.8118" x2="-273.6521" y2="3555.8118" gradientTransform="matrix(0.7071 -0.7071 0.7071 0.7071 -2218.906 -2648.3481)">
		<stop  offset="0.3126" style="stop-color:#0081FF"/>
		<stop  offset="1" style="stop-color:#00A4FF"/>
	</linearGradient>
	<path class="st0" d="M101.9,59.5"/>
	<path class="st1" d="M169.2,69.5l-13-12l-24.9,25c-1.2,1.2-3.3,1.3-4.5,0l-22.1-22.2c-2.5-2.4-6-3.3-9.2-2.4
		c-1.7,0.4-3.2,1.2-4.5,2.5L74.2,77l-5.5,5.4c-1.3,1.1-3.1,1-4.3-0.2L41.1,58.9c-1.3-1.3-1.3-3.3,0-4.5l24.6-24.6
		c1.2-1.2,3.2-1.3,4.5,0l6.3,5.9c1.3,1.2,3.2,1.2,4.5,0L92.7,24c1.3-1.2,1.3-3.3,0-4.5L77.6,4c-5.4-5.4-14.1-5.4-19.4,0L17.6,44.7
		c-6.6,6.6-6.6,17.3,0,24L56.9,108c5.4,5.4,14.1,5.4,19.4,0l18.8-18.7c1.6-1.3,3.9-1.3,5.4,0.2l18.9,18.8c5.4,5.4,14.1,5.4,19.4,0
		l30.6-30.6C171.7,75.4,171.6,71.7,169.2,69.5z"/>
	<path class="st1" d="M165.1,44.7l-8.3-8.3l-10.9,10.9l10.4,10.4l8.8-8.8C166.2,47.7,166.2,45.8,165.1,44.7z"/>
	<path class="st2" d="M165.5,23.4l-8.3-8.3L146.3,26l10.4,10.4l8.8-8.8C166.7,26.4,166.7,24.6,165.5,23.4z"/>
	<path class="st2" d="M143.8,45.1l-8.3-8.3l-10.9,10.9L135,58.1l8.8-8.8C144.9,48.1,144.9,46.3,143.8,45.1z"/>
	<path class="st1" d="M53,125.6c-1.7-2.3-4.6-3.4-8.5-3.4c-7.7,0-13.9,5.1-15.6,12.8c-0.8,3.8-0.2,7,1.7,9.4c1.9,2.3,5,3.6,8.9,3.6
		c4.4,0,8.4-1.5,11.6-4.4l0.5-0.4l-3.6-4.7l-0.5,0.4c-1.9,1.5-4.1,2.4-6.2,2.4c-2.5,0-4.1-1.3-4.4-3.5h16.9l0.1-0.5
		C55.3,132.3,55,128.2,53,125.6z M43.5,128.5c1.3,0,2.3,0.4,3,1.1c0.6,0.7,0.8,1.6,0.7,2.8h-9.3C39.1,130,41.1,128.5,43.5,128.5z"/>
	<polygon class="st1" points="89.7,147.7 97.9,147.7 103.2,122.4 95,122.4 	"/>
	<path class="st1" d="M104.1,113c-0.7-0.8-1.7-1.2-2.9-1.2c-2.5,0-4.6,1.8-5.1,4.3c-0.3,1.3-0.1,2.5,0.6,3.4
		c0.7,0.8,1.7,1.2,2.9,1.2c2.5,0,4.6-1.8,5.1-4.3C105,115,104.8,113.8,104.1,113z"/>
	<path class="st2" d="M148.6,125c-1.5-1.9-4.2-2.8-7.8-2.8c-4.1,0-7.9,0.8-11.3,2.2c-0.6,3.3-1.7,6.7-1.7,6.7s6.3-2.2,10.3-2.3
		c1.5,0,2.6,0.3,3.2,1c0.4,0.5,0.5,1.2,0.3,2.1h-6.1c-6.1,0-10.2,2.9-11.3,7.7c-0.5,2.3-0.1,4.3,1.1,5.8c1.3,1.6,3.4,2.5,6.2,2.5
		c2.7,0,5.2-0.7,7.1-2.1l-0.4,1.8h8.1l3.4-16.1C150.4,128.9,150,126.6,148.6,125z M134.6,141.8c-1,0-1.8-0.3-2.2-0.8
		c-0.3-0.4-0.4-0.9-0.3-1.5c0.2-1.1,0.9-2.2,3.8-2.2h4.6l-0.3,1.3C139.5,140.4,137.1,141.8,134.6,141.8z"/>
	<path class="st1" d="M115.4,131.6c-2.2-0.7-3.5-1.2-3.3-1.9c0.2-1.1,1.7-1.2,2.5-1.3c1.6-0.2,6.5,1.3,8.7,2.7
		c0.5-1.8,1.8-6.6,1.8-6.6c-2.3-1.3-6.1-2.4-9.5-2.4c-6.1,0-10.3,3.1-11.3,7.9c-1.2,5.6,3.5,7.1,6.9,8.1c2.4,0.8,3.6,1.2,3.4,2.1
		c-0.3,1.2-2,1.4-2.8,1.3c-4.4-0.1-8.4-3.4-9.8-4.9l-1.8,7.7c2.3,2.1,6.3,3.5,10.3,3.5c6.2,0,10.9-3.1,12-8
		C123.7,134.2,118.7,132.7,115.4,131.6z"/>
	<path class="st1" d="M190.2,131.6c-2.2-0.7-3.5-1.2-3.3-1.9c0.2-1.1,1.7-1.2,2.5-1.3c1.6-0.2,6.5,1.3,8.7,2.7
		c0.6-2,1.8-6.6,1.8-6.6c-2.3-1.3-6.1-2.4-9.5-2.4c-6.1,0-10.3,3.1-11.3,7.9c-1.2,5.6,3.5,7.1,6.9,8.1c2.4,0.8,3.6,1.2,3.4,2.1
		c-0.3,1.2-2,1.4-2.8,1.3c-4.4-0.1-8.4-3.4-9.8-4.9l-1.8,7.7c2.3,2.1,6.3,3.5,10.3,3.5c6.2,0,10.9-3.1,12-8
		C198.5,134.2,193.5,132.7,190.2,131.6z"/>
	<g>
		<path class="st1" d="M98.2,155.7c0.1-0.3,0.3-0.6,0.5-0.8c0.2-0.3,0.5-0.5,0.7-0.7c0.3-0.2,0.5-0.3,0.9-0.4c0.5-0.2,1-0.2,1.6-0.1
			c0.2,0,0.4,0.1,0.5,0.2c0.2,0.1,0.3,0.2,0.4,0.4c0.1,0.2,0.2,0.4,0.3,0.6l0.1,0.2l0.9-0.4l0-0.1c-0.1-0.3-0.2-0.5-0.3-0.8
			c-0.1-0.2-0.3-0.4-0.5-0.6c-0.2-0.2-0.5-0.3-0.8-0.4c-0.3-0.1-0.6-0.1-1-0.1c-0.7,0-1.3,0.2-1.9,0.4c-0.6,0.3-1.1,0.7-1.5,1.1
			c-0.4,0.5-0.7,1-1,1.6c-0.2,0.6-0.4,1.1-0.4,1.7c0,0.4,0.1,0.9,0.2,1.3c0.1,0.4,0.3,0.8,0.6,1.1c0.2,0.3,0.6,0.6,0.9,0.8
			c0.4,0.2,0.8,0.3,1.3,0.3c0.3,0,0.6,0,1-0.1c0.3-0.1,0.7-0.2,1-0.4c0.3-0.2,0.6-0.4,0.9-0.6c0.3-0.2,0.5-0.5,0.7-0.8l0.1-0.2
			l-0.8-0.4l-0.1,0.1c-0.2,0.3-0.4,0.5-0.6,0.7c-0.2,0.2-0.4,0.3-0.7,0.5c-0.2,0.1-0.5,0.2-0.7,0.3c-0.6,0.1-1.1,0.1-1.5-0.1
			c-0.3-0.1-0.5-0.3-0.7-0.6c-0.2-0.2-0.3-0.5-0.4-0.8c-0.1-0.3-0.2-0.7-0.2-1c0-0.3,0-0.6,0.1-0.9S98.1,156,98.2,155.7z"/>
		<path class="st1" d="M105.8,158.3c0.3,0,0.5,0,0.8,0c2.1,0,3.2-0.6,3.2-1.9c0-0.3-0.1-0.5-0.2-0.8c-0.1-0.2-0.3-0.4-0.5-0.5
			c-0.2-0.1-0.4-0.3-0.6-0.3c-0.2-0.1-0.5-0.1-0.7-0.1c-0.5,0-1,0.1-1.4,0.3c-0.4,0.2-0.8,0.5-1.1,0.8c-0.3,0.3-0.6,0.7-0.8,1.2
			c-0.2,0.4-0.3,0.9-0.3,1.4c0,0.4,0.1,0.7,0.2,1c0.1,0.3,0.3,0.6,0.5,0.8c0.2,0.2,0.5,0.4,0.8,0.6c0.3,0.1,0.6,0.2,1,0.2
			c0.3,0,0.5,0,0.8-0.1c0.3-0.1,0.5-0.2,0.8-0.3c0.2-0.1,0.5-0.3,0.7-0.5c0.2-0.2,0.4-0.4,0.5-0.6l0.1-0.2l-0.8-0.3l-0.1,0.1
			c-0.1,0.2-0.2,0.3-0.3,0.4c-0.1,0.1-0.3,0.2-0.5,0.3c-0.2,0.1-0.3,0.2-0.5,0.2c-0.5,0.1-0.9,0.1-1.2-0.1c-0.2-0.1-0.4-0.2-0.5-0.4
			c-0.1-0.2-0.2-0.4-0.3-0.6c-0.1-0.2-0.1-0.5-0.1-0.7c0-0.1,0-0.1,0-0.2C105.3,158.3,105.6,158.3,105.8,158.3z M108.4,157.2
			c-0.2,0.1-0.4,0.2-0.7,0.2c-0.5,0.1-1.1,0.1-1.8,0.1c-0.2,0-0.4,0-0.6,0c0.1-0.2,0.2-0.4,0.3-0.6c0.2-0.3,0.3-0.5,0.6-0.7
			c0.2-0.2,0.5-0.4,0.7-0.5c0.4-0.2,0.9-0.2,1.3-0.1c0.1,0,0.3,0.1,0.4,0.2c0.1,0.1,0.2,0.2,0.2,0.3c0.1,0.1,0.1,0.2,0.1,0.4
			s0,0.3-0.1,0.4C108.7,157,108.6,157.1,108.4,157.2z"/>
		<path class="st1" d="M114,154.9c-0.4,0-0.8,0.1-1.3,0.4c-0.2,0.1-0.4,0.3-0.6,0.5l0.2-0.9h-0.9l-1.3,6.2h1l0.8-3.7
			c0.2-0.5,0.6-0.8,1-1.1c0.4-0.3,0.8-0.4,1.3-0.4l0.2,0l0.2-0.8l-0.2,0C114.1,154.9,114.1,154.9,114,154.9z"/>
		<path class="st1" d="M116.3,155.7h1.3l0.2-0.8h-1.3l0.4-2H116l-0.4,2h-0.8l-0.2,0.8h0.8l-0.9,4.1c0,0.1,0,0.1,0,0.1
			c0,0,0,0.1,0,0.1c0,0.3,0.1,0.6,0.3,0.7c0.2,0.2,0.5,0.2,0.8,0.2c0.2,0,0.3,0,0.5,0c0.1,0,0.3-0.1,0.4-0.1c0.1,0,0.2-0.1,0.3-0.1
			c0.1,0,0.2-0.1,0.2-0.1l0.1-0.1l-0.1-0.9l-0.3,0.2c0,0,0,0-0.1,0c-0.1,0-0.1,0.1-0.2,0.1c-0.1,0-0.2,0.1-0.2,0.1
			c-0.2,0-0.4,0.1-0.5-0.1c0,0-0.1-0.1-0.1-0.2c0,0,0-0.1,0.1-0.4L116.3,155.7z"/>
		<polygon class="st1" points="119.5,152.5 119.2,153.9 120.2,153.9 120.5,152.5 		"/>
		<polygon class="st1" points="117.7,161 118.7,161 120,154.9 119,154.9 		"/>
		<path class="st1" d="M122.9,154.3c0.1-0.2,0.2-0.4,0.3-0.5c0.1-0.1,0.3-0.3,0.5-0.4c0.4-0.2,0.8-0.2,1.2,0
			c0.2,0.1,0.3,0.1,0.3,0.2l0.1,0.2l0.7-0.7l-0.2-0.1c0,0-0.1-0.1-0.2-0.1c-0.1-0.1-0.2-0.1-0.3-0.2c-0.1-0.1-0.3-0.1-0.4-0.1
			c-0.2,0-0.4-0.1-0.6-0.1c-0.4,0-0.7,0.1-1,0.2c-0.3,0.1-0.5,0.3-0.7,0.6c-0.2,0.2-0.4,0.5-0.5,0.8c-0.1,0.3-0.2,0.6-0.3,0.8l0,0
			H121l-0.2,0.8h0.8l-1.1,5.3h1l1.1-5.3h1.7l-1.1,5.3h1l1.3-6.2h-2.7C122.7,154.7,122.8,154.5,122.9,154.3z"/>
		<path class="st1" d="M127.6,156.5c0.2-0.3,0.5-0.5,0.8-0.6c0.6-0.3,1.3-0.3,1.7,0c0.2,0.2,0.4,0.4,0.4,0.6l0.1,0.2l1-0.3l0-0.2
			c-0.1-0.5-0.4-0.8-0.7-1.1c-0.4-0.3-0.8-0.4-1.4-0.4c-0.5,0-1,0.1-1.4,0.3c-0.4,0.2-0.8,0.5-1.1,0.8c-0.3,0.3-0.6,0.7-0.8,1.2
			c-0.2,0.4-0.3,0.9-0.3,1.4c0,0.4,0.1,0.7,0.2,1c0.1,0.3,0.3,0.6,0.5,0.8c0.2,0.2,0.5,0.4,0.7,0.6c0.3,0.1,0.6,0.2,1,0.2
			c0.3,0,0.5,0,0.8-0.1c0.3-0.1,0.5-0.2,0.8-0.3c0.2-0.1,0.5-0.3,0.6-0.5c0.2-0.2,0.4-0.4,0.5-0.6l0.1-0.2l-0.9-0.3l-0.1,0.1
			c-0.1,0.1-0.2,0.2-0.3,0.4c-0.1,0.1-0.3,0.2-0.4,0.3c-0.2,0.1-0.3,0.2-0.5,0.2c-0.4,0.1-0.8,0.1-1.1-0.1c-0.2-0.1-0.3-0.2-0.5-0.4
			c-0.1-0.2-0.2-0.4-0.3-0.6c-0.1-0.2-0.1-0.5-0.1-0.7c0-0.4,0.1-0.7,0.2-1.1C127.2,157,127.4,156.7,127.6,156.5z"/>
		<path class="st1" d="M138.2,154.9h-1l-0.2,0.9c0,0,0,0,0,0c-0.1-0.2-0.3-0.3-0.4-0.5c-0.2-0.1-0.4-0.2-0.6-0.3
			c-0.2-0.1-0.5-0.1-0.7-0.1c-0.5,0-0.9,0.1-1.3,0.3c-0.4,0.2-0.8,0.5-1.1,0.8c-0.3,0.3-0.6,0.7-0.7,1.2c-0.2,0.4-0.3,0.9-0.3,1.4
			c0,0.3,0,0.7,0.1,1c0.1,0.3,0.2,0.6,0.4,0.8c0.2,0.2,0.4,0.4,0.7,0.6c0.3,0.1,0.6,0.2,0.9,0.2c0.5,0,0.9-0.1,1.4-0.4
			c0.2-0.1,0.5-0.3,0.7-0.5c0,0,0,0,0,0.1c0,0,0,0.1,0,0.1c0,0.2,0.1,0.3,0.2,0.4c0.1,0.1,0.3,0.2,0.6,0.2c0,0,0.1,0,0.1,0l0.1,0
			l0.1-0.6l0-0.2h-0.2c0,0,0,0,0-0.1L138.2,154.9z M134.9,160.1c-0.5,0.2-0.8,0.1-1.2,0c-0.2-0.1-0.3-0.2-0.5-0.4
			c-0.1-0.2-0.2-0.4-0.3-0.6c-0.1-0.2-0.1-0.5-0.1-0.7c0-0.3,0.1-0.7,0.2-1c0.1-0.3,0.3-0.6,0.5-0.9c0.2-0.3,0.5-0.5,0.8-0.6
			c0.3-0.2,0.6-0.2,0.9-0.2c0.2,0,0.4,0,0.5,0.1c0.2,0.1,0.3,0.2,0.5,0.3c0.1,0.1,0.3,0.3,0.3,0.4c0.1,0.2,0.1,0.3,0.2,0.5l-0.4,1.8
			c-0.1,0.2-0.2,0.4-0.3,0.5c-0.2,0.2-0.3,0.3-0.5,0.5C135.3,159.9,135.1,160,134.9,160.1z"/>
		<path class="st1" d="M143.9,160.1l1.6-7.5h-1l-0.7,3.2c0,0,0,0,0,0c-0.1-0.2-0.3-0.3-0.4-0.5c-0.2-0.1-0.4-0.2-0.6-0.3
			c-0.6-0.2-1.4-0.1-2,0.2c-0.4,0.2-0.8,0.5-1.1,0.8c-0.3,0.3-0.6,0.7-0.7,1.2c-0.2,0.4-0.3,0.9-0.3,1.4c0,0.3,0,0.7,0.1,1
			c0.1,0.3,0.2,0.6,0.4,0.8c0.2,0.2,0.4,0.4,0.7,0.6c0.3,0.1,0.6,0.2,1,0.2c0.4,0,0.9-0.1,1.3-0.4c0.2-0.1,0.5-0.3,0.7-0.5l0,0.1
			c0,0,0,0.1,0,0.1c0,0.3,0.2,0.5,0.6,0.6h0.1c0,0,0.1,0,0.2,0l0.1,0l0.1-0.6l0-0.2L143.9,160.1
			C143.9,160.1,143.9,160.1,143.9,160.1z M141.7,160.1c-0.5,0.2-0.9,0.1-1.2,0c-0.2-0.1-0.3-0.2-0.5-0.4c-0.1-0.2-0.2-0.4-0.3-0.6
			c-0.1-0.2-0.1-0.5-0.1-0.7c0-0.3,0.1-0.6,0.2-1c0.1-0.3,0.3-0.6,0.5-0.9c0.2-0.3,0.5-0.5,0.8-0.6c0.3-0.2,0.6-0.2,0.9-0.2
			c0.2,0,0.3,0,0.5,0.1c0.2,0.1,0.3,0.2,0.5,0.3c0.1,0.1,0.2,0.3,0.3,0.4c0.1,0.2,0.1,0.3,0.2,0.5l-0.4,1.8
			c-0.1,0.2-0.2,0.4-0.3,0.5c-0.2,0.2-0.3,0.3-0.5,0.5C142.2,160,141.9,160.1,141.7,160.1z"/>
		<path class="st1" d="M150.8,155.6c-0.2-0.2-0.4-0.4-0.7-0.6c-0.7-0.3-1.6-0.3-2.3,0.1c-0.4,0.2-0.8,0.5-1.1,0.8
			c-0.3,0.3-0.6,0.7-0.8,1.2c-0.2,0.5-0.3,0.9-0.3,1.4c0,0.4,0.1,0.7,0.2,1c0.1,0.3,0.3,0.6,0.5,0.8c0.2,0.2,0.4,0.4,0.7,0.6
			c0.3,0.1,0.6,0.2,1,0.2c0.5,0,0.9-0.1,1.4-0.3c0.4-0.2,0.8-0.5,1.1-0.8c0.3-0.3,0.6-0.7,0.8-1.2c0.2-0.5,0.3-0.9,0.3-1.4
			c0-0.4-0.1-0.7-0.2-1C151.2,156.1,151,155.8,150.8,155.6z M150.5,157.5c0,0.4-0.1,0.7-0.2,1c-0.2,0.3-0.3,0.6-0.6,0.9
			c-0.2,0.3-0.5,0.5-0.8,0.6c-0.5,0.3-1.1,0.3-1.5,0.1c-0.2-0.1-0.3-0.2-0.5-0.4c-0.1-0.2-0.2-0.3-0.3-0.6c-0.1-0.2-0.1-0.5-0.1-0.7
			c0-0.4,0.1-0.7,0.2-1.1c0.1-0.3,0.3-0.6,0.6-0.9c0.2-0.3,0.5-0.5,0.8-0.6c0.3-0.1,0.6-0.2,0.9-0.2c0.2,0,0.4,0,0.6,0.1
			c0.2,0.1,0.3,0.2,0.5,0.4c0.1,0.2,0.2,0.4,0.3,0.6C150.4,157,150.5,157.2,150.5,157.5z"/>
		<path class="st1" d="M153.9,155.9c0.1-0.1,0.3-0.2,0.5-0.2c0.5-0.1,1-0.1,1.4,0.1c0.2,0.1,0.4,0.2,0.5,0.4l0.1,0.2l0.7-0.5
			l-0.1-0.1c-0.1-0.3-0.4-0.5-0.7-0.7c-0.3-0.2-0.7-0.2-1.2-0.2c-0.3,0-0.7,0-1,0.1c-0.3,0.1-0.6,0.2-0.8,0.4
			c-0.2,0.2-0.4,0.4-0.6,0.7c-0.1,0.3-0.2,0.6-0.2,0.9c0,0.2,0,0.4,0.1,0.5c0.1,0.1,0.2,0.3,0.4,0.4c0.1,0.1,0.3,0.2,0.5,0.2
			c0.2,0.1,0.4,0.1,0.7,0.2c0.5,0.1,0.8,0.2,1.1,0.4c0.2,0.1,0.3,0.2,0.3,0.4c0,0.2,0,0.3-0.1,0.5c-0.1,0.1-0.2,0.3-0.3,0.4
			c-0.1,0.1-0.3,0.2-0.5,0.2c-0.2,0.1-0.4,0.1-0.7,0.1c-0.3,0-0.7-0.1-0.9-0.2c-0.3-0.1-0.5-0.3-0.7-0.6l-0.1-0.2l-0.6,0.7l0.1,0.1
			c0.2,0.3,0.6,0.6,1,0.7c0.4,0.2,0.8,0.2,1.2,0.2c0.4,0,0.7-0.1,1.1-0.2c0.3-0.1,0.6-0.3,0.9-0.4c0.2-0.2,0.4-0.4,0.6-0.7
			c0.1-0.3,0.2-0.6,0.2-0.9c0-0.2,0-0.4-0.1-0.6c-0.1-0.2-0.2-0.3-0.4-0.4c-0.2-0.1-0.4-0.2-0.6-0.3c-0.2-0.1-0.5-0.2-0.8-0.2
			c-0.2-0.1-0.4-0.1-0.5-0.1c-0.1,0-0.2-0.1-0.3-0.1c-0.1,0-0.1-0.1-0.2-0.2c0-0.1,0-0.1,0-0.2c0-0.2,0-0.4,0.1-0.5
			C153.7,156.1,153.8,156,153.9,155.9z"/>
		<polygon class="st1" points="166.1,157.2 166.2,156.4 162.5,156.4 163,153.7 167.4,153.7 167.6,152.8 162.3,152.8 160.5,161 
			165.9,161 166.1,160.1 161.7,160.1 162.3,157.2 		"/>
		<path class="st1" d="M168.4,159.7l1.5-7.2h-1l-1.5,7.3c0,0.1,0,0.2,0,0.3c0,0.3,0.1,0.5,0.3,0.7c0.2,0.2,0.4,0.3,0.7,0.3
			c0.1,0,0.3,0,0.5-0.1c0.2,0,0.4-0.1,0.5-0.1l0.1,0V160l-0.3,0.1c-0.1,0-0.2,0.1-0.3,0.1c-0.3,0-0.4,0-0.5-0.1
			c-0.1-0.1-0.1-0.1-0.1-0.2C168.3,159.9,168.3,159.8,168.4,159.7C168.3,159.8,168.4,159.8,168.4,159.7z"/>
		<path class="st1" d="M171.9,158.3c0.3,0,0.5,0,0.8,0c2.1,0,3.2-0.6,3.2-1.9c0-0.3-0.1-0.5-0.2-0.8c-0.1-0.2-0.3-0.4-0.5-0.5
			c-0.2-0.1-0.4-0.3-0.6-0.3c-0.2-0.1-0.5-0.1-0.7-0.1c-0.5,0-1,0.1-1.4,0.3c-0.4,0.2-0.8,0.5-1.1,0.8c-0.3,0.3-0.6,0.7-0.8,1.2
			c-0.2,0.4-0.3,0.9-0.3,1.4c0,0.4,0.1,0.7,0.2,1c0.1,0.3,0.3,0.6,0.5,0.8c0.2,0.2,0.5,0.4,0.8,0.6c0.3,0.1,0.6,0.2,1,0.2
			c0.3,0,0.5,0,0.8-0.1c0.3-0.1,0.5-0.2,0.8-0.3c0.2-0.1,0.5-0.3,0.7-0.5c0.2-0.2,0.4-0.4,0.5-0.6l0.1-0.2l-0.8-0.3l-0.1,0.1
			c-0.1,0.2-0.2,0.3-0.3,0.4c-0.1,0.1-0.3,0.2-0.5,0.3c-0.2,0.1-0.3,0.2-0.5,0.2c-0.5,0.1-0.9,0.1-1.2-0.1c-0.2-0.1-0.4-0.2-0.5-0.4
			c-0.1-0.2-0.2-0.4-0.3-0.6c-0.1-0.2-0.1-0.5-0.1-0.7c0-0.1,0-0.1,0-0.2C171.5,158.3,171.7,158.3,171.9,158.3z M174.5,157.2
			c-0.2,0.1-0.4,0.2-0.7,0.2c-0.5,0.1-1.1,0.1-1.8,0.1c-0.2,0-0.4,0-0.6,0c0.1-0.2,0.2-0.4,0.3-0.6c0.2-0.3,0.3-0.5,0.6-0.7
			c0.2-0.2,0.5-0.4,0.7-0.5c0.4-0.2,0.9-0.2,1.3-0.1c0.1,0,0.3,0.1,0.4,0.2c0.1,0.1,0.2,0.2,0.2,0.3c0.1,0.1,0.1,0.2,0.1,0.4
			s0,0.3-0.1,0.4C174.8,157,174.7,157.1,174.5,157.2z"/>
		<path class="st1" d="M178.2,156.5c0.2-0.3,0.5-0.5,0.8-0.6c0.6-0.3,1.3-0.3,1.7,0c0.2,0.2,0.4,0.4,0.4,0.6l0.1,0.2l1-0.3l0-0.2
			c-0.1-0.5-0.4-0.8-0.7-1.1c-0.4-0.3-0.8-0.4-1.4-0.4c-0.5,0-1,0.1-1.4,0.3c-0.4,0.2-0.8,0.5-1.1,0.8c-0.3,0.3-0.6,0.7-0.8,1.2
			c-0.2,0.4-0.3,0.9-0.3,1.4c0,0.4,0.1,0.7,0.2,1c0.1,0.3,0.3,0.6,0.5,0.8c0.2,0.2,0.5,0.4,0.7,0.6c0.3,0.1,0.6,0.2,1,0.2
			c0.3,0,0.5,0,0.8-0.1c0.3-0.1,0.5-0.2,0.8-0.3c0.2-0.1,0.5-0.3,0.6-0.5c0.2-0.2,0.4-0.4,0.5-0.6l0.1-0.2l-0.9-0.3l-0.1,0.1
			c-0.1,0.1-0.2,0.2-0.3,0.4c-0.1,0.1-0.3,0.2-0.4,0.3c-0.2,0.1-0.3,0.2-0.5,0.2c-0.4,0.1-0.8,0.1-1.1-0.1c-0.2-0.1-0.3-0.2-0.5-0.4
			c-0.1-0.2-0.2-0.4-0.3-0.6c-0.1-0.2-0.1-0.5-0.1-0.7c0-0.4,0.1-0.7,0.2-1.1C177.8,157,177.9,156.7,178.2,156.5z"/>
		<path class="st1" d="M184.6,155.7h1.3l0.2-0.8h-1.3l0.4-2h-0.9l-0.4,2H183l-0.2,0.8h0.8l-0.9,4.1c0,0.1,0,0.1,0,0.1
			c0,0,0,0.1,0,0.1c0,0.3,0.1,0.6,0.3,0.7c0.2,0.2,0.5,0.2,0.8,0.2c0.2,0,0.3,0,0.5,0c0.1,0,0.3-0.1,0.4-0.1c0.1,0,0.2-0.1,0.3-0.1
			c0.1,0,0.2-0.1,0.2-0.1l0.1-0.1l-0.1-0.9l-0.3,0.2c0,0,0,0-0.1,0c-0.1,0-0.1,0.1-0.2,0.1c-0.1,0-0.2,0.1-0.2,0.1
			c-0.2,0-0.4,0.1-0.5-0.1c0,0-0.1-0.1-0.1-0.2c0,0,0-0.1,0.1-0.4L184.6,155.7z"/>
		<path class="st1" d="M190.1,155.7l0.2-0.8l-0.2,0c0,0-0.1,0-0.2,0c-0.4,0-0.8,0.1-1.3,0.4c-0.2,0.1-0.4,0.3-0.6,0.5l0.2-0.9h-0.9
			L186,161h1l0.8-3.7c0.2-0.5,0.6-0.8,1-1.1c0.4-0.3,0.8-0.4,1.3-0.4L190.1,155.7z"/>
		<path class="st1" d="M195.1,155.6c-0.2-0.2-0.4-0.4-0.7-0.6c-0.7-0.3-1.6-0.3-2.3,0.1c-0.4,0.2-0.8,0.5-1.1,0.8
			c-0.3,0.3-0.6,0.7-0.8,1.2c-0.2,0.5-0.3,0.9-0.3,1.4c0,0.4,0.1,0.7,0.2,1c0.1,0.3,0.3,0.6,0.5,0.8c0.2,0.2,0.4,0.4,0.7,0.6
			c0.3,0.1,0.6,0.2,1,0.2c0.5,0,0.9-0.1,1.4-0.3c0.4-0.2,0.8-0.5,1.1-0.8c0.3-0.3,0.6-0.7,0.8-1.2c0.2-0.5,0.3-0.9,0.3-1.4
			c0-0.4-0.1-0.7-0.2-1C195.5,156.1,195.3,155.8,195.1,155.6z M194.8,157.5c0,0.4-0.1,0.7-0.2,1c-0.2,0.3-0.3,0.6-0.6,0.9
			c-0.2,0.3-0.5,0.5-0.8,0.6c-0.5,0.3-1.1,0.3-1.5,0.1c-0.2-0.1-0.3-0.2-0.5-0.4c-0.1-0.2-0.2-0.3-0.3-0.6c-0.1-0.2-0.1-0.5-0.1-0.7
			c0-0.4,0.1-0.7,0.2-1.1c0.1-0.3,0.3-0.6,0.6-0.9c0.2-0.3,0.5-0.5,0.8-0.6c0.3-0.1,0.6-0.2,0.9-0.2c0.2,0,0.4,0,0.6,0.1
			c0.2,0.1,0.3,0.2,0.5,0.4c0.1,0.2,0.2,0.4,0.3,0.6C194.8,157,194.8,157.2,194.8,157.5z"/>
		<polygon class="st1" points="195.2,152.5 194,152.5 193,153.7 193.7,154.1 		"/>
		<path class="st1" d="M200.6,154.8c-0.3,0-0.5,0-0.8,0.1c-0.3,0.1-0.5,0.2-0.8,0.3c-0.2,0.1-0.5,0.3-0.7,0.5c0,0,0,0-0.1,0.1
			l0.2-0.9h-0.9l-1.3,6.2h1l0.8-3.7c0.1-0.2,0.3-0.4,0.4-0.6c0.2-0.2,0.4-0.4,0.6-0.5c0.2-0.2,0.4-0.3,0.7-0.4
			c0.2-0.1,0.4-0.1,0.6-0.1c0.3,0,0.7,0.1,0.7,0.9c0,0.1,0,0.3,0,0.4c0,0.2,0,0.3-0.1,0.5l-0.7,3.4h1l0.7-3.5c0-0.2,0.1-0.4,0.1-0.6
			c0-0.2,0-0.4,0-0.6c0-0.5-0.1-0.9-0.3-1.2C201.4,154.9,201.1,154.8,200.6,154.8z"/>
		<polygon class="st1" points="204.4,152.5 204.1,153.9 205.1,153.9 205.4,152.5 		"/>
		<polygon class="st1" points="202.6,161 203.6,161 204.9,154.9 203.9,154.9 		"/>
		<path class="st1" d="M207.1,156.5c0.2-0.3,0.5-0.5,0.8-0.6c0.6-0.3,1.3-0.3,1.7,0c0.2,0.2,0.4,0.4,0.4,0.6l0.1,0.2l1-0.3l0-0.2
			c-0.1-0.5-0.4-0.8-0.7-1.1c-0.4-0.3-0.8-0.4-1.4-0.4c-0.5,0-1,0.1-1.4,0.3c-0.4,0.2-0.8,0.5-1.1,0.8c-0.3,0.3-0.6,0.7-0.8,1.2
			c-0.2,0.4-0.3,0.9-0.3,1.4c0,0.4,0.1,0.7,0.2,1c0.1,0.3,0.3,0.6,0.5,0.8c0.2,0.2,0.5,0.4,0.7,0.6c0.3,0.1,0.6,0.2,1,0.2
			c0.3,0,0.5,0,0.8-0.1c0.3-0.1,0.5-0.2,0.8-0.3c0.2-0.1,0.5-0.3,0.6-0.5c0.2-0.2,0.4-0.4,0.5-0.6l0.1-0.2l-0.9-0.3l-0.1,0.1
			c-0.1,0.1-0.2,0.2-0.3,0.4c-0.1,0.1-0.3,0.2-0.4,0.3c-0.2,0.1-0.3,0.2-0.5,0.2c-0.4,0.1-0.8,0.1-1.1-0.1c-0.2-0.1-0.3-0.2-0.5-0.4
			c-0.1-0.2-0.2-0.4-0.3-0.6c-0.1-0.2-0.1-0.5-0.1-0.7c0-0.4,0.1-0.7,0.2-1.1C206.7,157,206.8,156.7,207.1,156.5z"/>
		<path class="st1" d="M216.6,155.6c-0.2-0.2-0.4-0.4-0.7-0.6c-0.7-0.3-1.6-0.3-2.3,0.1c-0.4,0.2-0.8,0.5-1.1,0.8
			c-0.3,0.3-0.6,0.7-0.8,1.2c-0.2,0.5-0.3,0.9-0.3,1.4c0,0.4,0.1,0.7,0.2,1c0.1,0.3,0.3,0.6,0.5,0.8c0.2,0.2,0.4,0.4,0.7,0.6
			c0.3,0.1,0.6,0.2,1,0.2c0.5,0,0.9-0.1,1.4-0.3c0.4-0.2,0.8-0.5,1.1-0.8c0.3-0.3,0.6-0.7,0.8-1.2c0.2-0.5,0.3-0.9,0.3-1.4
			c0-0.4-0.1-0.7-0.2-1C217,156.1,216.8,155.8,216.6,155.6z M216.3,157.5c0,0.4-0.1,0.7-0.2,1c-0.2,0.3-0.3,0.6-0.6,0.9
			c-0.2,0.3-0.5,0.5-0.8,0.6c-0.5,0.3-1.1,0.3-1.5,0.1c-0.2-0.1-0.3-0.2-0.5-0.4c-0.1-0.2-0.2-0.3-0.3-0.6c-0.1-0.2-0.1-0.5-0.1-0.7
			c0-0.4,0.1-0.7,0.2-1.1c0.1-0.3,0.3-0.6,0.6-0.9c0.2-0.3,0.5-0.5,0.8-0.6c0.3-0.1,0.6-0.2,0.9-0.2c0.2,0,0.4,0,0.6,0.1
			c0.2,0.1,0.3,0.2,0.5,0.4c0.1,0.2,0.2,0.4,0.3,0.6C216.3,157,216.3,157.2,216.3,157.5z"/>
		<path class="st1" d="M221.8,158c-0.2-0.1-0.4-0.2-0.6-0.3c-0.2-0.1-0.5-0.2-0.8-0.2c-0.2-0.1-0.4-0.1-0.5-0.1
			c-0.1,0-0.2-0.1-0.3-0.1c-0.1,0-0.1-0.1-0.2-0.2c0-0.1,0-0.1,0-0.2c0-0.2,0-0.4,0.1-0.5c0.1-0.1,0.2-0.3,0.3-0.4
			c0.1-0.1,0.3-0.2,0.5-0.2c0.5-0.1,1-0.1,1.4,0.1c0.2,0.1,0.4,0.2,0.5,0.4l0.1,0.2l0.7-0.5l-0.1-0.1c-0.1-0.3-0.4-0.5-0.7-0.7
			c-0.3-0.2-0.7-0.2-1.2-0.2c-0.3,0-0.7,0-1,0.1c-0.3,0.1-0.6,0.2-0.8,0.4c-0.2,0.2-0.4,0.4-0.6,0.7c-0.1,0.3-0.2,0.6-0.2,0.9
			c0,0.2,0,0.4,0.1,0.5c0.1,0.1,0.2,0.3,0.4,0.4c0.1,0.1,0.3,0.2,0.5,0.2c0.2,0.1,0.4,0.1,0.7,0.2c0.5,0.1,0.8,0.2,1.1,0.4
			c0.2,0.1,0.3,0.2,0.3,0.4c0,0.2,0,0.3-0.1,0.5c-0.1,0.1-0.2,0.3-0.3,0.4c-0.1,0.1-0.3,0.2-0.5,0.2c-0.2,0.1-0.4,0.1-0.7,0.1
			c-0.3,0-0.7-0.1-0.9-0.2c-0.3-0.1-0.5-0.3-0.7-0.6l-0.1-0.2l-0.6,0.7l0.1,0.1c0.2,0.3,0.6,0.6,1,0.7c0.4,0.2,0.8,0.2,1.2,0.2
			c0.4,0,0.7-0.1,1.1-0.2c0.3-0.1,0.6-0.3,0.9-0.4c0.2-0.2,0.4-0.4,0.6-0.7c0.1-0.3,0.2-0.6,0.2-0.9c0-0.2,0-0.4-0.1-0.6
			C222.1,158.2,222,158.1,221.8,158z"/>
	</g>
	<path class="st1" d="M222.6,148.6c0,0-27.2,0-32,0c7-1.5,8.8-7,8.8-10c2.8,0,25.7,0,25.7,0L222.6,148.6z"/>
	<g>
		<path class="st3" d="M200.1,144.8c-0.5,0-1,0.4-1.1,0.9c-0.1,0.3,0,0.5,0.1,0.7c0.1,0.2,0.3,0.3,0.6,0.3c0.5,0,1-0.4,1.1-0.9
			c0.1-0.3,0-0.5-0.1-0.7C200.6,144.9,200.3,144.8,200.1,144.8z"/>
		<path class="st3" d="M204.9,144.5c-0.3,0.3-0.6,0.5-1,0.5c-0.2,0-0.4-0.1-0.5-0.2c-0.1-0.2-0.2-0.5-0.1-0.9
			c0.2-0.7,0.7-1.1,1.2-1.1c0.4,0,0.6,0.1,0.8,0.4l0.1,0.1l1.5-0.8l0-0.1c-0.3-0.8-1-1.2-2.1-1.2c-1.6,0-2.9,1.1-3.3,2.6
			c-0.2,0.8-0.1,1.5,0.3,1.9c0.4,0.5,1,0.7,1.8,0.7c1.1,0,2-0.4,2.6-1.2l0.1-0.1L204.9,144.5L204.9,144.5z"/>
		<path class="st3" d="M211.7,142c-0.4-0.5-1.1-0.8-1.9-0.8c-1.7,0-3.1,1.1-3.5,2.6c-0.2,0.8-0.1,1.4,0.3,1.9
			c0.4,0.5,1.1,0.8,1.9,0.8c1.7,0,3.1-1.1,3.5-2.6C212.2,143.2,212.1,142.5,211.7,142z M208.1,143.9c0.2-0.7,0.7-1.2,1.3-1.2
			c0.2,0,0.4,0.1,0.6,0.2c0.2,0.2,0.2,0.5,0.1,0.9c-0.2,0.7-0.7,1.2-1.3,1.2c-0.2,0-0.4-0.1-0.6-0.2
			C208.1,144.6,208.1,144.3,208.1,143.9z"/>
		<path class="st3" d="M221,141.7c-0.3-0.3-0.7-0.5-1.2-0.5c-0.8,0-1.4,0.3-1.9,0.9c-0.2-0.6-0.7-0.9-1.5-0.9
			c-0.6,0-1.2,0.2-1.6,0.6l0.1-0.5h-1.9l-1.3,5.2h1.9l0.6-2.6c0.2-0.6,0.6-1.1,1.1-1.1c0.2,0,0.3,0.1,0.4,0.2
			c0.1,0.1,0.1,0.3,0.1,0.6l-0.7,2.8h1.9l0.6-2.6c0.2-0.6,0.6-1.1,1.1-1.1c0.2,0,0.3,0.1,0.4,0.2c0.1,0.1,0.1,0.3,0.1,0.6l-0.7,2.8
			h1.9l0.8-3.2C221.4,142.6,221.3,142.1,221,141.7z"/>
	</g>
	<path class="st1" d="M24.9,136.3c0,0-4.1,4-9.2,4c-2.3,0-4.3-0.9-5.6-2.4c-1.3-1.6-1.8-3.9-1.2-6.4c1.1-5.1,5.8-9,10.9-9
		c2.6,0,5.2,1.4,6.7,3.8L27,127c0,0,3-4.1,6.2-5.7c-0.1-0.2-0.6-0.9-0.6-0.9c-2.5-3.3-7-5.4-11.7-5.4c-9.8,0-18.6,7-20.6,16.3
		c-1,4.6-0.1,8.8,2.4,11.9c2.5,3.1,6.5,4.8,11.2,4.8c3.9,0,8.6-1.6,12.4-4.2C24.8,140.9,24.9,136.3,24.9,136.3z"/>
	<path class="st2" d="M174.4,125c-1.5-1.9-4.2-2.8-7.8-2.8c-4.1,0-7.9,0.8-11.3,2.2c-0.6,3.3-1.7,6.7-1.7,6.7s6.3-2.2,10.3-2.3
		c1.5,0,2.6,0.3,3.2,1c0.4,0.5,0.5,1.2,0.3,2.1h-6.1c-6.1,0-10.2,2.9-11.3,7.7c-0.5,2.3-0.1,4.3,1.1,5.8c1.3,1.6,3.4,2.5,6.2,2.5
		c2.7,0,5.2-0.7,7.1-2.1l-0.4,1.8h8.1l3.4-16.1C176.1,128.9,175.7,126.6,174.4,125z M160.3,141.8c-1,0-1.8-0.3-2.2-0.8
		c-0.3-0.4-0.4-0.9-0.3-1.5c0.2-1.1,0.9-2.2,3.8-2.2h4.6l-0.3,1.3C165.3,140.4,162.9,141.8,160.3,141.8z"/>
	<path class="st1" d="M74.7,122.4c-2.9,0-5.6,1-7.7,3l0.6-2.8h-8.2L54,147.8h8.2l2.5-12c0.8-3.9,3.9-6.2,9.8-6.1
		c0.6-2.8,1.7-7.4,1.7-7.4L74.7,122.4z"/>
	<path class="st1" d="M84.7,129.7h6.5l1.6-7.4h-6.5l1.1-5.3h-8.1L74.4,140c-0.5,2.4-0.2,4.5,1,5.9c1.2,1.5,3.1,2.2,5.6,2.2
		c1.9,0,3.9-0.4,5.8-1.2l0,0c0,0,0,0,0.1,0c0.3-0.1,0.7-0.3,1-0.5l0.1-0.1c0.1,0,0.1-0.1,0.2-0.1l1.6-7.3c0,0-1.5,0.7-2.5,1.2
		l-0.3,0.1c-1.3,0.6-2.4,0.8-3.2,0.8c-0.5,0-0.8-0.1-1-0.3c-0.2-0.3-0.3-0.9-0.1-1.7L84.7,129.7z"/>
</g>
</svg>
