<?xml version="1.0" encoding="utf-8"?>
<!-- Generator: Adobe Illustrator 22.1.0, SVG Export Plug-In . SVG Version: 6.00 Build 0)  -->
<svg version="1.1" id="Capa_1" xmlns="http://www.w3.org/2000/svg" xmlns:xlink="http://www.w3.org/1999/xlink" x="0px" y="0px"
	 viewBox="0 0 792 612" style="enable-background:new 0 0 792 612;" xml:space="preserve">
<style type="text/css">
	.st0{fill:url(#SVGID_4_);}
	.st1{fill:url(#SVGID_5_);}
	.st2{fill:url(#SVGID_6_);}
	.st3{fill:#0DDEA1;}
	.st4{fill:#0098FF;}
	.st5{fill:#272525;}
	.st6{fill:#0081FF;}
	.st7{fill:#FFFFFF;}
	.st8{fill:url(#SVGID_7_);}
	.st9{fill:#ACDBE8;}
</style>
<g>
	<defs>
		<rect id="SVGID_1_" x="872.8" y="-4" width="802.4" height="620"/>
	</defs>
	<radialGradient id="SVGID_2_" cx="1274" cy="306" r="358.4987" gradientUnits="userSpaceOnUse">
		<stop  offset="0" style="stop-color:#0081FF"/>
		<stop  offset="1" style="stop-color:#005FB4"/>
	</radialGradient>
	<use xlink:href="#SVGID_1_"  style="overflow:visible;fill:url(#SVGID_2_);"/>
	<clipPath id="SVGID_3_">
		<use xlink:href="#SVGID_1_"  style="overflow:visible;"/>
	</clipPath>
</g>
<g>
	<g>
		
			<linearGradient id="SVGID_4_" gradientUnits="userSpaceOnUse" x1="266.959" y1="3160.9473" x2="266.959" y2="3160.9473" gradientTransform="matrix(0.7071 -0.7071 0.7071 0.7071 -2038.5134 -1760.8918)">
			<stop  offset="0.3126" style="stop-color:#0081FF"/>
			<stop  offset="1" style="stop-color:#00A4FF"/>
		</linearGradient>
		<path class="st0" d="M385.4,285.5"/>
		<linearGradient id="SVGID_5_" gradientUnits="userSpaceOnUse" x1="353.4024" y1="302.2584" x2="356.6111" y2="222.8955">
			<stop  offset="0.2588" style="stop-color:#0081FF"/>
			<stop  offset="0.7387" style="stop-color:#00A4FF"/>
		</linearGradient>
		<path class="st1" d="M409.9,309.2l-21.7-23c-3.8-3.7-9.9-3.7-13.7,0.1l-22.2,21.9c-1.3,1.2-3.3,1.2-4.5,0l-23.3-23.3
			c-1.3-1.3-1.3-3.3,0-4.5l24.6-24.6c1.2-1.2,3.2-1.3,4.5,0l6.3,5.9c1.3,1.2,3.2,1.2,4.5,0l11.8-11.6c1.3-1.2,1.3-3.3,0-4.5
			L361.1,230c-5.4-5.4-14.1-5.4-19.4,0L301,270.7c-6.6,6.6-6.6,17.3,0,24l39.4,39.4c5.4,5.4,14.1,5.4,19.4,0l18.9-18.8
			c1.5-1.5,4-1.5,5.6,0l10.2,9.9c1.6,1.5,4.1,1.5,5.6-0.1l10-10C411.6,313.4,411.6,310.8,409.9,309.2z"/>
		
			<linearGradient id="SVGID_6_" gradientUnits="userSpaceOnUse" x1="507.7687" y1="320.8899" x2="509.3734" y2="281.1991" gradientTransform="matrix(-1 0 0 1 906.334 0)">
			<stop  offset="0.2862" style="stop-color:#0081FF"/>
			<stop  offset="0.6183" style="stop-color:#00A4FF"/>
		</linearGradient>
		<path class="st2" d="M439.7,283.5l-24.9,25c-1.2,1.2-3.3,1.3-4.5,0l-22.1-22.2c-3.8-3.7-9.9-3.8-13.8,0.3L343,317.4
			c-1.6,1.6-1.6,4.1-0.1,5.7l11,11c1.5,1.5,4,1.6,5.6,0.1l18.9-18.7c1.6-1.5,4-1.5,5.6,0l18.9,18.8c5.4,5.4,14.1,5.4,19.4,0
			l30.6-30.6c2.3-2.3,2.2-6-0.2-8.2L439.7,283.5z"/>
		<path class="st3" d="M448.5,270.7l-8.3-8.3l-10.9,10.9l10.4,10.4l8.8-8.8C449.7,273.7,449.7,271.8,448.5,270.7z"/>
		<path class="st4" d="M449,249.4l-8.3-8.3L429.8,252l10.4,10.4l8.8-8.8C450.1,252.4,450.1,250.6,449,249.4z"/>
		<path class="st4" d="M427.3,271.1l-8.3-8.3L408,273.7l10.4,10.4l8.8-8.8C428.4,274.1,428.4,272.3,427.3,271.1z"/>
	</g>
	<path class="st5" d="M336.5,351.6c-1.7-2.3-4.6-3.4-8.5-3.4c-7.7,0-13.9,5.1-15.6,12.8c-0.8,3.8-0.2,7,1.7,9.4
		c1.9,2.3,5,3.6,8.9,3.6c4.4,0,8.4-1.5,11.6-4.4l0.5-0.4l-3.6-4.7l-0.5,0.4c-1.9,1.5-4.1,2.4-6.2,2.4c-2.5,0-4.1-1.3-4.4-3.5h16.9
		l0.1-0.5C338.8,358.2,338.4,354.2,336.5,351.6z M327,354.5c1.3,0,2.3,0.4,3,1.1c0.6,0.7,0.8,1.6,0.7,2.8h-9.3
		C322.5,355.9,324.6,354.5,327,354.5z"/>
	<path class="st5" d="M358.1,348.2c-2.9,0-5.6,1-7.7,3l0.6-2.8h-8.2l-5.3,25.2h8.2l2.5-12c0.8-3.9,3.9-6.2,9.8-6.1
		c0.6-2.8,1.7-7.4,1.7-7.4L358.1,348.2z"/>
	<polygon class="st5" points="373.1,373.6 381.3,373.6 386.7,348.4 378.5,348.4 	"/>
	<path class="st5" d="M387.6,339c-0.7-0.8-1.7-1.2-2.9-1.2c-2.5,0-4.6,1.8-5.1,4.3c-0.3,1.3-0.1,2.5,0.6,3.4
		c0.7,0.8,1.7,1.2,2.9,1.2c2.5,0,4.6-1.8,5.1-4.3C388.5,341,388.3,339.8,387.6,339z"/>
	<path class="st6" d="M432.1,351c-1.5-1.9-4.2-2.8-7.8-2.8c-4.1,0-7.9,0.8-11.3,2.2c-0.6,3.3-1.7,6.8-1.7,6.8s6.3-2.2,10.3-2.3
		c1.5,0,2.6,0.3,3.2,1c0.4,0.5,0.5,1.2,0.3,2.1h-6.1c-6.1,0-10.2,2.9-11.3,7.7c-0.5,2.3-0.1,4.3,1.1,5.8c1.3,1.6,3.4,2.5,6.2,2.5
		c2.7,0,5.2-0.7,7.1-2.1l-0.4,1.8h8.1l3.4-16.1C433.8,354.8,433.4,352.6,432.1,351z M418,367.7c-1,0-1.8-0.3-2.2-0.8
		c-0.3-0.4-0.4-0.9-0.3-1.5c0.2-1.1,0.9-2.2,3.8-2.2h4.6l-0.3,1.3C423,366.4,420.6,367.7,418,367.7z"/>
	<path class="st5" d="M398.8,357.6c-2.2-0.7-3.5-1.2-3.3-1.9c0.2-1.1,1.7-1.2,2.5-1.3c1.6-0.2,6.1,1.2,8.3,2.6
		c0.5-1.8,1.8-6.6,1.8-6.6c-2.3-1.3-5.7-2.3-9.1-2.3c-6.1,0-10.3,3.1-11.3,7.9c-1.2,5.6,3.5,7.1,6.9,8.1c2.4,0.8,3.6,1.2,3.4,2.1
		c-0.3,1.2-2,1.4-2.8,1.3c-4.4-0.1-8.4-3.4-9.8-4.9l-1.8,7.7c2.3,2.1,6.3,3.5,10.3,3.5c6.2,0,10.9-3.1,12-8
		C407.1,360.2,402.1,358.6,398.8,357.6z"/>
	<path class="st5" d="M473.6,357.6c-2.2-0.7-3.5-1.2-3.3-1.9c0.2-1.1,1.7-1.2,2.5-1.3c1.6-0.2,6.1,1.2,8.3,2.6
		c0.6-2,1.8-6.6,1.8-6.6c-2.3-1.3-5.7-2.3-9.1-2.3c-6.1,0-10.3,3.1-11.3,7.9c-1.2,5.6,3.5,7.1,6.9,8.1c2.4,0.8,3.6,1.2,3.4,2.1
		c-0.3,1.2-2,1.4-2.8,1.3c-4.4-0.1-8.4-3.4-9.8-4.9l-1.8,7.7c2.3,2.1,6.3,3.5,10.3,3.5c6.2,0,10.9-3.1,12-8
		C482,360.2,477,358.6,473.6,357.6z"/>
	<g>
		<path class="st5" d="M385.4,380.6c0.1-0.3,0.3-0.5,0.5-0.8c0.2-0.2,0.4-0.5,0.7-0.7c0.3-0.2,0.5-0.3,0.8-0.4
			c0.5-0.2,1-0.2,1.5-0.1c0.2,0,0.4,0.1,0.5,0.2c0.2,0.1,0.3,0.2,0.4,0.4c0.1,0.2,0.2,0.4,0.3,0.6l0.1,0.2l0.8-0.4l0-0.1
			c-0.1-0.3-0.2-0.5-0.3-0.7c-0.1-0.2-0.3-0.4-0.5-0.6c-0.2-0.2-0.5-0.3-0.7-0.4c-0.3-0.1-0.6-0.1-0.9-0.1c-0.7,0-1.3,0.1-1.8,0.4
			c-0.5,0.3-1,0.7-1.4,1.1c-0.4,0.5-0.7,1-0.9,1.5c-0.2,0.6-0.3,1.1-0.3,1.7c0,0.4,0.1,0.8,0.2,1.2c0.1,0.4,0.3,0.8,0.5,1.1
			c0.2,0.3,0.5,0.6,0.9,0.8c0.4,0.2,0.8,0.3,1.2,0.3c0.3,0,0.6,0,0.9-0.1c0.3-0.1,0.6-0.2,0.9-0.4c0.3-0.2,0.6-0.4,0.9-0.6
			c0.3-0.2,0.5-0.5,0.7-0.8l0.1-0.2l-0.8-0.4l-0.1,0.1c-0.2,0.2-0.4,0.5-0.6,0.6c-0.2,0.2-0.4,0.3-0.6,0.4c-0.2,0.1-0.4,0.2-0.7,0.3
			c-0.6,0.1-1.1,0.1-1.5-0.1c-0.3-0.1-0.5-0.3-0.6-0.5c-0.2-0.2-0.3-0.5-0.4-0.8c-0.1-0.3-0.1-0.6-0.1-1c0-0.3,0-0.6,0.1-0.9
			C385.1,381.1,385.2,380.8,385.4,380.6z"/>
		<path class="st5" d="M392.7,383.1c0.3,0,0.5,0,0.7,0c2.1,0,3.1-0.6,3.1-1.8c0-0.3-0.1-0.5-0.2-0.7c-0.1-0.2-0.3-0.4-0.4-0.5
			c-0.2-0.1-0.4-0.2-0.6-0.3c-0.2-0.1-0.5-0.1-0.7-0.1c-0.5,0-1,0.1-1.4,0.3c-0.4,0.2-0.8,0.5-1.1,0.8c-0.3,0.3-0.6,0.7-0.7,1.2
			c-0.2,0.4-0.3,0.9-0.3,1.3c0,0.3,0.1,0.7,0.2,1c0.1,0.3,0.3,0.6,0.4,0.8c0.2,0.2,0.4,0.4,0.7,0.6c0.3,0.1,0.6,0.2,1,0.2
			c0.3,0,0.5,0,0.8-0.1c0.3-0.1,0.5-0.2,0.7-0.3c0.2-0.1,0.4-0.3,0.6-0.5c0.2-0.2,0.4-0.4,0.5-0.6l0.1-0.2l-0.8-0.3l-0.1,0.1
			c-0.1,0.2-0.2,0.3-0.3,0.4c-0.1,0.1-0.3,0.2-0.4,0.3c-0.2,0.1-0.3,0.2-0.5,0.2c-0.4,0.1-0.9,0.1-1.2-0.1c-0.2-0.1-0.3-0.2-0.5-0.4
			s-0.2-0.3-0.3-0.6c-0.1-0.2-0.1-0.5-0.1-0.7c0-0.1,0-0.1,0-0.2C392.3,383.1,392.5,383.1,392.7,383.1z M395.2,382
			c-0.2,0.1-0.4,0.2-0.7,0.2c-0.4,0.1-1.1,0.1-1.8,0.1c-0.2,0-0.4,0-0.6,0c0.1-0.2,0.2-0.4,0.3-0.6c0.1-0.2,0.3-0.5,0.5-0.7
			s0.4-0.3,0.7-0.5c0.4-0.2,0.8-0.2,1.3-0.1c0.1,0,0.3,0.1,0.3,0.2c0.1,0.1,0.2,0.2,0.2,0.3c0.1,0.1,0.1,0.2,0.1,0.4
			c0,0.1,0,0.3-0.1,0.4C395.5,381.8,395.4,381.9,395.2,382z"/>
		<path class="st5" d="M400.7,379.7c-0.4,0-0.8,0.1-1.2,0.4c-0.2,0.1-0.4,0.3-0.6,0.5l0.2-0.9h-0.9l-1.3,6h0.9l0.8-3.6
			c0.2-0.5,0.5-0.8,0.9-1.1c0.4-0.3,0.8-0.4,1.2-0.4l0.1,0l0.2-0.8l-0.2,0C400.8,379.7,400.8,379.7,400.7,379.7z"/>
		<path class="st5" d="M403,380.6h1.2l0.2-0.8h-1.2l0.4-1.9h-0.9l-0.4,1.9h-0.8l-0.2,0.8h0.8l-0.9,4c0,0,0,0.1,0,0.1
			c0,0,0,0.1,0,0.1c0,0.3,0.1,0.6,0.3,0.7c0.2,0.2,0.4,0.2,0.7,0.2c0.2,0,0.3,0,0.4,0c0.1,0,0.3-0.1,0.4-0.1c0.1,0,0.2-0.1,0.3-0.1
			c0.1,0,0.1-0.1,0.2-0.1l0.1-0.1l-0.1-0.8l-0.2,0.2c0,0,0,0-0.1,0c-0.1,0-0.1,0.1-0.2,0.1c-0.1,0-0.1,0.1-0.2,0.1
			c-0.2,0-0.4,0-0.5-0.1c0,0-0.1-0.1-0.1-0.2c0,0,0-0.1,0.1-0.4L403,380.6z"/>
		<polygon class="st5" points="404.3,385.7 405.2,385.7 406.5,379.7 405.5,379.7 		"/>
		<polygon class="st5" points="406,377.5 405.7,378.8 406.7,378.8 407,377.5 		"/>
		<path class="st5" d="M409.3,379.2c0.1-0.2,0.2-0.3,0.3-0.5c0.1-0.1,0.3-0.3,0.4-0.4c0.3-0.2,0.8-0.2,1.1,0
			c0.2,0.1,0.3,0.1,0.3,0.2l0.1,0.2l0.6-0.7l-0.3-0.3c-0.1-0.1-0.2-0.1-0.3-0.2c-0.1-0.1-0.3-0.1-0.4-0.1c-0.2,0-0.3-0.1-0.5-0.1
			c-0.4,0-0.7,0.1-1,0.2c-0.3,0.1-0.5,0.3-0.7,0.6c-0.2,0.2-0.4,0.5-0.5,0.8c-0.1,0.3-0.2,0.5-0.3,0.8l0,0h-0.7l-0.2,0.8h0.7
			l-1.1,5.2h0.9l1.1-5.2h1.7l-1.1,5.2h0.9l1.3-6h-2.6C409.2,379.6,409.2,379.4,409.3,379.2z"/>
		<path class="st5" d="M413.9,381.3c0.2-0.2,0.5-0.4,0.8-0.6c0.6-0.3,1.2-0.3,1.7,0c0.2,0.2,0.4,0.4,0.4,0.6l0.1,0.2l0.9-0.3l0-0.2
			c-0.1-0.5-0.3-0.8-0.7-1.1c-0.4-0.3-0.8-0.4-1.3-0.4c-0.5,0-0.9,0.1-1.3,0.3c-0.4,0.2-0.8,0.5-1.1,0.8c-0.3,0.3-0.6,0.7-0.8,1.1
			c-0.2,0.4-0.3,0.9-0.3,1.4c0,0.3,0.1,0.7,0.2,1c0.1,0.3,0.3,0.6,0.5,0.8c0.2,0.2,0.4,0.4,0.7,0.6c0.3,0.1,0.6,0.2,1,0.2
			c0.3,0,0.5,0,0.8-0.1c0.3-0.1,0.5-0.2,0.7-0.3c0.2-0.1,0.4-0.3,0.6-0.5c0.2-0.2,0.3-0.4,0.5-0.6l0.1-0.2l-0.9-0.3l-0.1,0.1
			c-0.1,0.1-0.2,0.2-0.3,0.3c-0.1,0.1-0.3,0.2-0.4,0.3c-0.2,0.1-0.3,0.2-0.5,0.2c-0.4,0.1-0.8,0.1-1.1-0.1c-0.2-0.1-0.3-0.2-0.4-0.4
			c-0.1-0.2-0.2-0.3-0.3-0.6c-0.1-0.2-0.1-0.5-0.1-0.7c0-0.4,0.1-0.7,0.2-1C413.5,381.8,413.6,381.5,413.9,381.3z"/>
		<path class="st5" d="M424.2,379.7h-0.9l-0.2,0.8c0,0,0,0,0,0c-0.1-0.2-0.3-0.3-0.4-0.5s-0.4-0.2-0.6-0.3c-0.2-0.1-0.4-0.1-0.7-0.1
			c-0.4,0-0.9,0.1-1.3,0.3c-0.4,0.2-0.7,0.5-1,0.8c-0.3,0.3-0.5,0.7-0.7,1.2c-0.2,0.4-0.3,0.9-0.3,1.3c0,0.3,0,0.7,0.1,1
			c0.1,0.3,0.2,0.6,0.4,0.8c0.2,0.2,0.4,0.4,0.7,0.6c0.3,0.1,0.6,0.2,0.9,0.2c0.4,0,0.9-0.1,1.3-0.4c0.2-0.1,0.5-0.3,0.7-0.5
			c0,0,0,0,0,0.1c0,0,0,0.1,0,0.1c0,0.2,0.1,0.3,0.2,0.4c0.1,0.1,0.3,0.2,0.5,0.2c0,0,0.1,0,0.1,0l0.2,0l0.1-0.6l0-0.2h-0.2
			c0,0,0,0,0-0.1L424.2,379.7z M421,384.8c-0.5,0.2-0.8,0.1-1.1,0c-0.2-0.1-0.3-0.2-0.5-0.4c-0.1-0.2-0.2-0.3-0.3-0.6
			c-0.1-0.2-0.1-0.4-0.1-0.7c0-0.3,0.1-0.6,0.2-1c0.1-0.3,0.3-0.6,0.5-0.9s0.5-0.5,0.8-0.6c0.3-0.2,0.6-0.2,0.9-0.2
			c0.2,0,0.4,0,0.5,0.1c0.2,0.1,0.3,0.2,0.4,0.3c0.1,0.1,0.2,0.3,0.3,0.4c0.1,0.1,0.1,0.3,0.2,0.5l-0.4,1.8
			c-0.1,0.2-0.2,0.3-0.3,0.5c-0.2,0.2-0.3,0.3-0.5,0.4C421.4,384.7,421.2,384.8,421,384.8z"/>
		<path class="st5" d="M429.7,384.8l1.6-7.3h-0.9l-0.7,3.1c0,0,0,0,0,0c-0.1-0.2-0.3-0.3-0.4-0.5s-0.4-0.2-0.6-0.3
			c-0.2-0.1-0.4-0.1-0.7-0.1c-0.4,0-0.9,0.1-1.3,0.3c-0.4,0.2-0.8,0.5-1.1,0.8c-0.3,0.3-0.5,0.7-0.7,1.2c-0.2,0.4-0.3,0.9-0.3,1.3
			c0,0.3,0,0.7,0.1,1c0.1,0.3,0.2,0.6,0.4,0.8c0.2,0.2,0.4,0.4,0.7,0.6c0.3,0.1,0.6,0.2,0.9,0.2c0.4,0,0.9-0.1,1.3-0.4
			c0.2-0.1,0.5-0.3,0.7-0.5l0,0c0,0,0,0.1,0,0.1c0,0.3,0.2,0.5,0.6,0.6h0.1c0,0,0.1,0,0.2,0l0.1,0l0.1-0.6l0-0.2L429.7,384.8
			C429.7,384.8,429.7,384.8,429.7,384.8z M427.6,384.8c-0.5,0.2-0.8,0.1-1.1,0c-0.2-0.1-0.3-0.2-0.5-0.4c-0.1-0.2-0.2-0.4-0.3-0.6
			c-0.1-0.2-0.1-0.5-0.1-0.7c0-0.3,0.1-0.6,0.2-0.9c0.1-0.3,0.3-0.6,0.5-0.9c0.2-0.3,0.5-0.5,0.8-0.6c0.3-0.2,0.6-0.2,0.9-0.2
			c0.2,0,0.3,0,0.5,0.1c0.2,0.1,0.3,0.2,0.4,0.3c0.1,0.1,0.2,0.3,0.3,0.4c0.1,0.2,0.1,0.3,0.2,0.5l-0.4,1.8
			c-0.1,0.2-0.2,0.3-0.3,0.5c-0.2,0.2-0.3,0.3-0.5,0.5C428,384.7,427.8,384.8,427.6,384.8z"/>
		<path class="st5" d="M436.4,380.4c-0.2-0.2-0.4-0.4-0.7-0.6c-0.6-0.3-1.5-0.3-2.3,0.1c-0.4,0.2-0.8,0.5-1.1,0.8
			c-0.3,0.3-0.6,0.7-0.8,1.2c-0.2,0.4-0.3,0.9-0.3,1.4c0,0.3,0.1,0.7,0.2,1c0.1,0.3,0.3,0.6,0.4,0.8c0.2,0.2,0.4,0.4,0.7,0.6
			c0.3,0.1,0.6,0.2,0.9,0.2c0.5,0,0.9-0.1,1.3-0.3c0.4-0.2,0.8-0.5,1.1-0.8c0.3-0.3,0.6-0.7,0.8-1.2c0.2-0.4,0.3-0.9,0.3-1.4
			c0-0.3-0.1-0.7-0.2-1C436.7,380.9,436.6,380.6,436.4,380.4z M436.1,382.3c0,0.4-0.1,0.7-0.2,1c-0.1,0.3-0.3,0.6-0.6,0.9
			c-0.2,0.2-0.5,0.4-0.8,0.6c-0.5,0.2-1,0.3-1.4,0.1c-0.2-0.1-0.3-0.2-0.4-0.4c-0.1-0.2-0.2-0.3-0.3-0.5c-0.1-0.2-0.1-0.4-0.1-0.7
			c0-0.4,0.1-0.7,0.2-1c0.1-0.3,0.3-0.6,0.6-0.9c0.2-0.3,0.5-0.5,0.8-0.6c0.3-0.1,0.6-0.2,0.9-0.2c0.2,0,0.4,0,0.6,0.1
			c0.2,0.1,0.3,0.2,0.4,0.4c0.1,0.2,0.2,0.3,0.3,0.6C436,381.8,436.1,382,436.1,382.3z"/>
		<path class="st5" d="M439.4,380.7c0.1-0.1,0.3-0.2,0.5-0.2c0.4-0.1,1-0.1,1.4,0.1c0.2,0.1,0.4,0.2,0.5,0.4l0.1,0.2l0.6-0.5
			l-0.1-0.1c-0.1-0.3-0.4-0.5-0.7-0.6c-0.3-0.2-0.7-0.2-1.1-0.2c-0.3,0-0.6,0-0.9,0.1c-0.3,0.1-0.6,0.2-0.8,0.4
			c-0.2,0.2-0.4,0.4-0.6,0.7c-0.1,0.3-0.2,0.6-0.2,0.9c0,0.2,0,0.4,0.1,0.5c0.1,0.1,0.2,0.3,0.3,0.4c0.1,0.1,0.3,0.2,0.5,0.2
			c0.2,0.1,0.4,0.1,0.7,0.2c0.5,0.1,0.8,0.2,1,0.4c0.2,0.1,0.3,0.2,0.3,0.4c0,0.2,0,0.3-0.1,0.5c-0.1,0.1-0.2,0.3-0.3,0.4
			c-0.1,0.1-0.3,0.2-0.5,0.2c-0.5,0.1-1.1,0.1-1.5-0.1c-0.3-0.1-0.5-0.3-0.7-0.6l-0.1-0.2l-0.6,0.6l0.1,0.1c0.2,0.3,0.5,0.6,0.9,0.7
			c0.4,0.2,0.8,0.2,1.2,0.2c0.4,0,0.7,0,1-0.1c0.3-0.1,0.6-0.2,0.8-0.4c0.2-0.2,0.4-0.4,0.6-0.7c0.1-0.3,0.2-0.5,0.2-0.9
			c0-0.2,0-0.4-0.1-0.6c-0.1-0.2-0.2-0.3-0.4-0.4c-0.2-0.1-0.4-0.2-0.6-0.3c-0.2-0.1-0.5-0.1-0.8-0.2c-0.2,0-0.4-0.1-0.5-0.1
			c-0.1,0-0.2-0.1-0.3-0.1c-0.1,0-0.1-0.1-0.2-0.2c0-0.1,0-0.1,0-0.2c0-0.2,0-0.4,0.1-0.5C439.2,381,439.3,380.8,439.4,380.7z"/>
		<polygon class="st5" points="451.2,382 451.4,381.2 447.7,381.2 448.3,378.6 452.5,378.6 452.6,377.7 447.5,377.7 445.8,385.7 
			451,385.7 451.2,384.8 446.9,384.8 447.5,382 		"/>
		<path class="st5" d="M453.4,384.5l1.5-7H454l-1.5,7.1c0,0.1,0,0.2,0,0.3c0,0.3,0.1,0.5,0.3,0.7c0.2,0.2,0.4,0.3,0.7,0.3
			c0.1,0,0.3,0,0.5-0.1c0.2,0,0.4-0.1,0.5-0.1l0.1,0v-0.8l-0.3,0.1c-0.1,0-0.2,0.1-0.3,0.1c-0.3,0-0.4,0-0.5-0.1
			c-0.1,0-0.1-0.1-0.1-0.2C453.4,384.6,453.4,384.6,453.4,384.5C453.4,384.5,453.4,384.5,453.4,384.5z"/>
		<path class="st5" d="M456.9,383.1c0.3,0,0.5,0,0.7,0c2.1,0,3.1-0.6,3.1-1.8c0-0.3-0.1-0.5-0.2-0.7c-0.1-0.2-0.3-0.4-0.4-0.5
			c-0.2-0.1-0.4-0.2-0.6-0.3c-0.2-0.1-0.5-0.1-0.7-0.1c-0.5,0-1,0.1-1.4,0.3c-0.4,0.2-0.8,0.5-1.1,0.8c-0.3,0.3-0.6,0.7-0.7,1.2
			c-0.2,0.4-0.3,0.9-0.3,1.3c0,0.3,0.1,0.7,0.2,1c0.1,0.3,0.3,0.6,0.4,0.8c0.2,0.2,0.4,0.4,0.7,0.6c0.3,0.1,0.6,0.2,1,0.2
			c0.3,0,0.5,0,0.8-0.1c0.3-0.1,0.5-0.2,0.7-0.3c0.2-0.1,0.4-0.3,0.6-0.5c0.2-0.2,0.4-0.4,0.5-0.6l0.1-0.2l-0.8-0.3l-0.1,0.1
			c-0.1,0.2-0.2,0.3-0.3,0.4c-0.1,0.1-0.3,0.2-0.4,0.3c-0.2,0.1-0.3,0.2-0.5,0.2c-0.4,0.1-0.9,0.1-1.2-0.1c-0.2-0.1-0.3-0.2-0.5-0.4
			s-0.2-0.3-0.3-0.6c-0.1-0.2-0.1-0.5-0.1-0.7c0-0.1,0-0.1,0-0.2C456.5,383.1,456.7,383.1,456.9,383.1z M459.4,382
			c-0.2,0.1-0.4,0.2-0.7,0.2c-0.4,0.1-1.1,0.1-1.8,0.1c-0.2,0-0.4,0-0.6,0c0.1-0.2,0.2-0.4,0.3-0.6c0.1-0.2,0.3-0.5,0.5-0.7
			s0.4-0.3,0.7-0.5c0.4-0.2,0.8-0.2,1.3-0.1c0.1,0,0.3,0.1,0.3,0.2c0.1,0.1,0.2,0.2,0.2,0.3c0.1,0.1,0.1,0.2,0.1,0.4
			c0,0.1,0,0.3-0.1,0.4C459.7,381.8,459.6,381.9,459.4,382z"/>
		<path class="st5" d="M463,381.3c0.2-0.2,0.5-0.4,0.8-0.6c0.6-0.3,1.2-0.3,1.7,0c0.2,0.2,0.4,0.4,0.4,0.6l0.1,0.2l0.9-0.3l0-0.2
			c-0.1-0.5-0.3-0.8-0.7-1.1c-0.4-0.3-0.8-0.4-1.3-0.4c-0.5,0-0.9,0.1-1.3,0.3c-0.4,0.2-0.8,0.5-1.1,0.8c-0.3,0.3-0.6,0.7-0.8,1.1
			c-0.2,0.4-0.3,0.9-0.3,1.4c0,0.3,0.1,0.7,0.2,1c0.1,0.3,0.3,0.6,0.5,0.8c0.2,0.2,0.4,0.4,0.7,0.6c0.3,0.1,0.6,0.2,1,0.2
			c0.3,0,0.5,0,0.8-0.1c0.3-0.1,0.5-0.2,0.7-0.3c0.2-0.1,0.4-0.3,0.6-0.5c0.2-0.2,0.3-0.4,0.5-0.6l0.1-0.2l-0.9-0.3l-0.1,0.1
			c-0.1,0.1-0.2,0.2-0.3,0.3c-0.1,0.1-0.3,0.2-0.4,0.3c-0.2,0.1-0.3,0.2-0.5,0.2c-0.4,0.1-0.8,0.1-1.1-0.1c-0.2-0.1-0.3-0.2-0.4-0.4
			c-0.1-0.2-0.2-0.3-0.3-0.6c-0.1-0.2-0.1-0.5-0.1-0.7c0-0.4,0.1-0.7,0.2-1C462.5,381.8,462.7,381.5,463,381.3z"/>
		<path class="st5" d="M469.2,380.6h1.2l0.2-0.8h-1.2l0.4-1.9h-0.9l-0.4,1.9h-0.8l-0.2,0.8h0.8l-0.9,4c0,0,0,0.1,0,0.1
			c0,0,0,0.1,0,0.1c0,0.3,0.1,0.6,0.3,0.7c0.2,0.2,0.4,0.2,0.7,0.2c0.2,0,0.3,0,0.4,0c0.1,0,0.3-0.1,0.4-0.1c0.1,0,0.2-0.1,0.3-0.1
			c0.1,0,0.1-0.1,0.2-0.1l0.1-0.1l-0.1-0.8l-0.2,0.2c0,0,0,0-0.1,0c-0.1,0-0.1,0.1-0.2,0.1c-0.1,0-0.1,0.1-0.2,0.1
			c-0.2,0-0.4,0-0.5-0.1c0,0-0.1-0.1-0.1-0.2c0,0,0-0.1,0.1-0.4L469.2,380.6z"/>
		<path class="st5" d="M474.5,380.6l0.2-0.8l-0.2,0c0,0-0.1,0-0.2,0c-0.4,0-0.8,0.1-1.2,0.4c-0.2,0.1-0.4,0.3-0.6,0.5l0.2-0.9h-0.9
			l-1.3,6h0.9l0.8-3.6c0.2-0.5,0.5-0.8,0.9-1.1c0.4-0.3,0.8-0.4,1.2-0.4L474.5,380.6z"/>
		<polygon class="st5" points="479.5,377.5 478.4,377.5 477.3,378.6 478,379 		"/>
		<path class="st5" d="M479.4,380.4c-0.2-0.2-0.4-0.4-0.7-0.6c-0.6-0.3-1.5-0.3-2.3,0.1c-0.4,0.2-0.8,0.5-1.1,0.8
			c-0.3,0.3-0.6,0.7-0.8,1.2c-0.2,0.4-0.3,0.9-0.3,1.4c0,0.3,0.1,0.7,0.2,1c0.1,0.3,0.3,0.6,0.4,0.8c0.2,0.2,0.4,0.4,0.7,0.6
			c0.3,0.1,0.6,0.2,0.9,0.2c0.5,0,0.9-0.1,1.3-0.3c0.4-0.2,0.8-0.5,1.1-0.8c0.3-0.3,0.6-0.7,0.8-1.2c0.2-0.4,0.3-0.9,0.3-1.4
			c0-0.3-0.1-0.7-0.2-1C479.8,380.9,479.6,380.6,479.4,380.4z M479.1,382.3c0,0.4-0.1,0.7-0.2,1c-0.1,0.3-0.3,0.6-0.6,0.9
			c-0.2,0.2-0.5,0.4-0.8,0.6c-0.5,0.2-1,0.3-1.4,0.1c-0.2-0.1-0.3-0.2-0.4-0.4c-0.1-0.2-0.2-0.3-0.3-0.5c-0.1-0.2-0.1-0.4-0.1-0.7
			c0-0.4,0.1-0.7,0.2-1c0.1-0.3,0.3-0.6,0.6-0.9c0.2-0.3,0.5-0.5,0.8-0.6c0.3-0.1,0.6-0.2,0.9-0.2c0.2,0,0.4,0,0.6,0.1
			c0.2,0.1,0.3,0.2,0.4,0.4c0.1,0.2,0.2,0.3,0.3,0.6C479.1,381.8,479.1,382,479.1,382.3z"/>
		<path class="st5" d="M484.7,379.6c-0.3,0-0.5,0-0.8,0.1c-0.3,0.1-0.5,0.2-0.7,0.3c-0.2,0.1-0.5,0.3-0.7,0.5c0,0,0,0-0.1,0.1
			l0.2-0.9h-0.9l-1.3,6h0.9l0.8-3.6c0.1-0.2,0.3-0.4,0.4-0.6c0.2-0.2,0.4-0.4,0.6-0.5c0.2-0.1,0.4-0.3,0.6-0.3
			c0.2-0.1,0.4-0.1,0.6-0.1c0.3,0,0.7,0.1,0.7,0.9c0,0.1,0,0.3,0,0.4c0,0.2,0,0.3-0.1,0.5l-0.7,3.3h0.9l0.7-3.4
			c0-0.2,0.1-0.4,0.1-0.6c0-0.2,0-0.4,0-0.6c0-0.5-0.1-0.9-0.3-1.1C485.5,379.8,485.2,379.6,484.7,379.6z"/>
		<polygon class="st5" points="488.4,377.5 488.1,378.8 489.1,378.8 489.4,377.5 		"/>
		<polygon class="st5" points="486.7,385.7 487.6,385.7 488.9,379.7 487.9,379.7 		"/>
		<path class="st5" d="M491,381.3c0.2-0.2,0.5-0.4,0.8-0.6c0.6-0.3,1.2-0.3,1.7,0c0.2,0.2,0.4,0.4,0.4,0.6l0.1,0.2l0.9-0.3l0-0.2
			c-0.1-0.5-0.3-0.8-0.7-1.1c-0.4-0.3-0.8-0.4-1.3-0.4c-0.5,0-0.9,0.1-1.3,0.3c-0.4,0.2-0.8,0.5-1.1,0.8c-0.3,0.3-0.6,0.7-0.8,1.1
			c-0.2,0.4-0.3,0.9-0.3,1.4c0,0.3,0.1,0.7,0.2,1c0.1,0.3,0.3,0.6,0.5,0.8c0.2,0.2,0.4,0.4,0.7,0.6c0.3,0.1,0.6,0.2,1,0.2
			c0.3,0,0.5,0,0.8-0.1c0.3-0.1,0.5-0.2,0.7-0.3c0.2-0.1,0.4-0.3,0.6-0.5c0.2-0.2,0.3-0.4,0.5-0.6l0.1-0.2l-0.9-0.3l-0.1,0.1
			c-0.1,0.1-0.2,0.2-0.3,0.3c-0.1,0.1-0.3,0.2-0.4,0.3c-0.2,0.1-0.3,0.2-0.5,0.2c-0.4,0.1-0.8,0.1-1.1-0.1c-0.2-0.1-0.3-0.2-0.4-0.4
			c-0.1-0.2-0.2-0.3-0.3-0.6c-0.1-0.2-0.1-0.5-0.1-0.7c0-0.4,0.1-0.7,0.2-1C490.6,381.8,490.8,381.5,491,381.3z"/>
		<path class="st5" d="M500.3,380.4c-0.2-0.2-0.4-0.4-0.7-0.6c-0.6-0.3-1.5-0.3-2.3,0.1c-0.4,0.2-0.8,0.5-1.1,0.8
			c-0.3,0.3-0.6,0.7-0.8,1.2c-0.2,0.4-0.3,0.9-0.3,1.4c0,0.3,0.1,0.7,0.2,1c0.1,0.3,0.3,0.6,0.4,0.8c0.2,0.2,0.4,0.4,0.7,0.6
			c0.3,0.1,0.6,0.2,0.9,0.2c0.5,0,0.9-0.1,1.3-0.3c0.4-0.2,0.8-0.5,1.1-0.8c0.3-0.3,0.6-0.7,0.8-1.2c0.2-0.4,0.3-0.9,0.3-1.4
			c0-0.3-0.1-0.7-0.2-1C500.6,380.9,500.5,380.6,500.3,380.4z M500,382.3c0,0.4-0.1,0.7-0.2,1c-0.1,0.3-0.3,0.6-0.6,0.9
			c-0.2,0.2-0.5,0.4-0.8,0.6c-0.5,0.2-1,0.3-1.4,0.1c-0.2-0.1-0.3-0.2-0.4-0.4c-0.1-0.2-0.2-0.3-0.3-0.5c-0.1-0.2-0.1-0.4-0.1-0.7
			c0-0.4,0.1-0.7,0.2-1c0.1-0.3,0.3-0.6,0.6-0.9c0.2-0.3,0.5-0.5,0.8-0.6c0.3-0.1,0.6-0.2,0.9-0.2c0.2,0,0.4,0,0.6,0.1
			c0.2,0.1,0.3,0.2,0.4,0.4c0.1,0.2,0.2,0.3,0.3,0.6C499.9,381.8,500,382,500,382.3z"/>
		<path class="st5" d="M505.3,382.7c-0.2-0.1-0.4-0.2-0.6-0.3c-0.2-0.1-0.5-0.1-0.8-0.2c-0.2,0-0.4-0.1-0.5-0.1
			c-0.1,0-0.2-0.1-0.3-0.1c-0.1,0-0.1-0.1-0.2-0.2c0-0.1,0-0.1,0-0.2c0-0.2,0-0.4,0.1-0.5c0.1-0.1,0.2-0.3,0.3-0.4
			c0.1-0.1,0.3-0.2,0.5-0.2c0.4-0.1,1-0.1,1.4,0.1c0.2,0.1,0.4,0.2,0.5,0.4l0.1,0.2l0.6-0.5l-0.1-0.1c-0.1-0.3-0.4-0.5-0.7-0.6
			c-0.3-0.2-0.7-0.2-1.1-0.2c-0.3,0-0.6,0-0.9,0.1c-0.3,0.1-0.6,0.2-0.8,0.4c-0.2,0.2-0.4,0.4-0.6,0.7c-0.1,0.3-0.2,0.6-0.2,0.9
			c0,0.2,0,0.4,0.1,0.5c0.1,0.1,0.2,0.3,0.3,0.4c0.1,0.1,0.3,0.2,0.5,0.2c0.2,0.1,0.4,0.1,0.7,0.2c0.5,0.1,0.8,0.2,1,0.4
			c0.2,0.1,0.3,0.2,0.3,0.4c0,0.2,0,0.3-0.1,0.5c-0.1,0.1-0.2,0.3-0.3,0.4c-0.1,0.1-0.3,0.2-0.5,0.2c-0.2,0.1-0.4,0.1-0.7,0.1
			c-0.3,0-0.6-0.1-0.9-0.2c-0.3-0.1-0.5-0.3-0.7-0.6l-0.1-0.2l-0.6,0.6l0.1,0.1c0.2,0.3,0.5,0.6,0.9,0.7c0.4,0.2,0.8,0.2,1.2,0.2
			c0.4,0,0.7,0,1-0.1c0.3-0.1,0.6-0.2,0.8-0.4c0.2-0.2,0.4-0.4,0.6-0.7c0.1-0.3,0.2-0.5,0.2-0.9c0-0.2,0-0.4-0.1-0.6
			C505.6,383,505.5,382.9,505.3,382.7z"/>
	</g>
	<path class="st5" d="M506,374.6c0,0-27.2,0-32,0c7-1.5,8.8-7,8.8-10c2.8,0,25.7,0,25.7,0L506,374.6z"/>
	<g>
		<path class="st7" d="M483.5,370.8c-0.5,0-1,0.4-1.1,0.9c-0.1,0.3,0,0.5,0.1,0.7c0.1,0.2,0.3,0.3,0.6,0.3c0.5,0,1-0.4,1.1-0.9
			c0.1-0.3,0-0.5-0.1-0.7C484,370.8,483.8,370.8,483.5,370.8z"/>
		<path class="st7" d="M488.4,370.5c-0.3,0.3-0.6,0.5-1,0.5c-0.2,0-0.4-0.1-0.5-0.2c-0.1-0.2-0.2-0.5-0.1-0.9
			c0.2-0.7,0.7-1.1,1.2-1.1c0.4,0,0.6,0.1,0.8,0.4l0.1,0.1l1.5-0.8l0-0.1c-0.3-0.8-1-1.2-2.1-1.2c-1.6,0-2.9,1.1-3.3,2.6
			c-0.2,0.8-0.1,1.5,0.3,1.9c0.4,0.5,1,0.7,1.8,0.7c1.1,0,2-0.4,2.6-1.2l0.1-0.1L488.4,370.5L488.4,370.5z"/>
		<path class="st7" d="M495.1,368c-0.4-0.5-1.1-0.8-1.9-0.8c-1.7,0-3.1,1.1-3.5,2.6c-0.2,0.8-0.1,1.4,0.3,1.9
			c0.4,0.5,1.1,0.8,1.9,0.8c1.7,0,3.1-1.1,3.5-2.6C495.6,369.1,495.5,368.5,495.1,368z M491.6,369.9c0.2-0.7,0.7-1.2,1.3-1.2
			c0.2,0,0.4,0.1,0.6,0.2c0.2,0.2,0.2,0.5,0.1,0.9c-0.2,0.7-0.7,1.2-1.3,1.2c-0.2,0-0.4-0.1-0.6-0.2
			C491.5,370.6,491.5,370.3,491.6,369.9z"/>
		<path class="st7" d="M504.5,367.7c-0.3-0.3-0.7-0.5-1.2-0.5c-0.8,0-1.4,0.3-1.9,0.9c-0.2-0.6-0.7-0.9-1.5-0.9
			c-0.6,0-1.2,0.2-1.6,0.6l0.1-0.5h-1.9l-1.3,5.2h1.9l0.6-2.6c0.2-0.6,0.6-1.1,1.1-1.1c0.2,0,0.3,0.1,0.4,0.2
			c0.1,0.1,0.1,0.3,0.1,0.6l-0.7,2.8h1.9l0.6-2.6c0.2-0.6,0.6-1.1,1.1-1.1c0.2,0,0.3,0.1,0.4,0.2c0.1,0.1,0.1,0.3,0.1,0.6l-0.7,2.8
			h1.9l0.8-3.2C504.8,368.6,504.8,368.1,504.5,367.7z"/>
	</g>
	<path class="st5" d="M368.1,355.5h6.5l1.6-7.4h-6.5l1.1-5.3h-8.1l-4.8,22.9c-0.5,2.4-0.2,4.5,1,5.9c1.2,1.5,3.1,2.2,5.6,2.2
		c1.9,0,3.9-0.4,5.8-1.2l0,0c0,0,0,0,0.1,0c0.3-0.1,0.7-0.3,1-0.5l0.1-0.1c0.1,0,0.1-0.1,0.2-0.1l1.6-7.3c0,0-1.5,0.7-2.5,1.2
		l-0.3,0.1c-1.3,0.6-2.4,0.8-3.2,0.8c-0.5,0-0.8-0.1-1-0.3c-0.2-0.3-0.3-0.9-0.1-1.7L368.1,355.5z"/>
	<path class="st5" d="M308.3,362.3c0,0-4.1,4-9.2,4c-2.3,0-4.3-0.9-5.6-2.4c-1.3-1.6-1.8-3.9-1.2-6.4c1.1-5.1,5.8-9,10.9-9
		c2.6,0,5.2,1.4,6.7,3.8l0.6,0.9c0,0,3-4.1,6.2-5.7c-0.1-0.2-0.6-0.9-0.6-0.9c-2.5-3.3-7-5.4-11.7-5.4c-9.8,0-18.6,7-20.6,16.3
		c-1,4.6-0.1,8.8,2.4,11.9c2.5,3.1,6.5,4.8,11.2,4.8c3.9,0,8.6-1.6,12.4-4.2C308.2,366.8,308.3,362.3,308.3,362.3z"/>
	<path class="st6" d="M457.8,351c-1.5-1.9-4.2-2.8-7.8-2.8c-4.1,0-7.9,0.8-11.3,2.2c-0.6,3.3-1.7,6.8-1.7,6.8s6.3-2.2,10.3-2.3
		c1.5,0,2.6,0.3,3.2,1c0.4,0.5,0.5,1.2,0.3,2.1h-6.1c-6.1,0-10.2,2.9-11.3,7.7c-0.5,2.3-0.1,4.3,1.1,5.8c1.3,1.6,3.4,2.5,6.2,2.5
		c2.7,0,5.2-0.7,7.1-2.1l-0.4,1.8h8.1l3.4-16.1C459.6,354.8,459.2,352.6,457.8,351z M443.8,367.7c-1,0-1.8-0.3-2.2-0.8
		c-0.3-0.4-0.4-0.9-0.3-1.5c0.2-1.1,0.9-2.2,3.8-2.2h4.6l-0.3,1.3C448.7,366.4,446.3,367.7,443.8,367.7z"/>
</g>
<g>
	
		<linearGradient id="SVGID_7_" gradientUnits="userSpaceOnUse" x1="887.7988" y1="3781.7869" x2="887.7988" y2="3781.7869" gradientTransform="matrix(0.7071 -0.7071 0.7071 0.7071 -2038.5134 -1760.8918)">
		<stop  offset="0.3126" style="stop-color:#0081FF"/>
		<stop  offset="1" style="stop-color:#00A4FF"/>
	</linearGradient>
	<path class="st8" d="M1263.4,285.5"/>
	<path class="st7" d="M1330.7,295.5l-13-12l-24.9,25c-1.2,1.2-3.3,1.3-4.5,0l-22.1-22.2c-2.5-2.4-6-3.3-9.2-2.4
		c-1.7,0.4-3.2,1.2-4.5,2.5l-16.9,16.6l-5.5,5.4c-1.3,1.1-3.1,1-4.3-0.2l-23.3-23.3c-1.3-1.3-1.3-3.3,0-4.5l24.6-24.6
		c1.2-1.2,3.2-1.3,4.5,0l6.3,5.9c1.3,1.2,3.2,1.2,4.5,0l11.8-11.6c1.3-1.2,1.3-3.3,0-4.5l-15.1-15.5c-5.4-5.4-14.1-5.4-19.4,0
		l-40.7,40.7c-6.6,6.6-6.6,17.3,0,24l39.4,39.4c5.4,5.4,14.1,5.4,19.4,0l18.8-18.7c1.6-1.3,3.9-1.3,5.4,0.2l18.9,18.8
		c5.4,5.4,14.1,5.4,19.4,0l30.6-30.6C1333.1,301.4,1333,297.6,1330.7,295.5z"/>
	<path class="st7" d="M1326.5,270.7l-8.3-8.3l-10.9,10.9l10.4,10.4l8.8-8.8C1327.7,273.7,1327.7,271.8,1326.5,270.7z"/>
	<path class="st9" d="M1327,249.4l-8.3-8.3l-10.9,10.9l10.4,10.4l8.8-8.8C1328.1,252.4,1328.1,250.6,1327,249.4z"/>
	<path class="st9" d="M1305.3,271.1l-8.3-8.3l-10.9,10.9l10.4,10.4l8.8-8.8C1306.4,274.1,1306.4,272.3,1305.3,271.1z"/>
	<path class="st7" d="M1214.5,351.6c-1.7-2.3-4.6-3.4-8.5-3.4c-7.7,0-13.9,5.1-15.6,12.8c-0.8,3.8-0.2,7,1.7,9.4
		c1.9,2.3,5,3.6,8.9,3.6c4.4,0,8.4-1.5,11.6-4.4l0.5-0.4l-3.6-4.7l-0.5,0.4c-1.9,1.5-4.1,2.4-6.2,2.4c-2.5,0-4.1-1.3-4.4-3.5h16.9
		l0.1-0.5C1216.8,358.2,1216.4,354.2,1214.5,351.6z M1205,354.5c1.3,0,2.3,0.4,3,1.1c0.6,0.7,0.8,1.6,0.7,2.8h-9.3
		C1200.5,355.9,1202.6,354.5,1205,354.5z"/>
	<polygon class="st7" points="1251.1,373.6 1259.3,373.6 1264.7,348.4 1256.5,348.4 	"/>
	<path class="st7" d="M1265.6,339c-0.7-0.8-1.7-1.2-2.9-1.2c-2.5,0-4.6,1.8-5.1,4.3c-0.3,1.3-0.1,2.5,0.6,3.4
		c0.7,0.8,1.7,1.2,2.9,1.2c2.5,0,4.6-1.8,5.1-4.3C1266.5,341,1266.3,339.8,1265.6,339z"/>
	<path class="st9" d="M1310.1,351c-1.5-1.9-4.2-2.8-7.8-2.8c-4.1,0-7.9,0.8-11.3,2.2c-0.6,3.3-1.7,6.8-1.7,6.8s6.3-2.2,10.3-2.3
		c1.5,0,2.6,0.3,3.2,1c0.4,0.5,0.5,1.2,0.3,2.1h-6.1c-6.1,0-10.2,2.9-11.3,7.7c-0.5,2.3-0.1,4.3,1.1,5.8c1.3,1.6,3.4,2.5,6.2,2.5
		c2.7,0,5.2-0.7,7.1-2.1l-0.4,1.8h8.1l3.4-16.1C1311.8,354.8,1311.4,352.6,1310.1,351z M1296,367.7c-1,0-1.8-0.3-2.2-0.8
		c-0.3-0.4-0.4-0.9-0.3-1.5c0.2-1.1,0.9-2.2,3.8-2.2h4.6l-0.3,1.3C1301,366.4,1298.6,367.7,1296,367.7z"/>
	<path class="st7" d="M1276.8,357.6c-2.2-0.7-3.5-1.2-3.3-1.9c0.2-1.1,1.7-1.2,2.5-1.3c1.6-0.2,6.5,1.3,8.7,2.7
		c0.5-1.8,1.8-6.6,1.8-6.6c-2.3-1.3-6.1-2.4-9.5-2.4c-6.1,0-10.3,3.1-11.3,7.9c-1.2,5.6,3.5,7.1,6.9,8.1c2.4,0.8,3.6,1.2,3.4,2.1
		c-0.3,1.2-2,1.4-2.8,1.3c-4.4-0.1-8.4-3.4-9.8-4.9l-1.8,7.7c2.3,2.1,6.3,3.5,10.3,3.5c6.2,0,10.9-3.1,12-8
		C1285.1,360.2,1280.1,358.6,1276.8,357.6z"/>
	<path class="st7" d="M1351.6,357.6c-2.2-0.7-3.5-1.2-3.3-1.9c0.2-1.1,1.7-1.2,2.5-1.3c1.6-0.2,6.5,1.3,8.7,2.7
		c0.6-2,1.8-6.6,1.8-6.6c-2.3-1.3-6.1-2.4-9.5-2.4c-6.1,0-10.3,3.1-11.3,7.9c-1.2,5.6,3.5,7.1,6.9,8.1c2.4,0.8,3.6,1.2,3.4,2.1
		c-0.3,1.2-2,1.4-2.8,1.3c-4.4-0.1-8.4-3.4-9.8-4.9l-1.8,7.7c2.3,2.1,6.3,3.5,10.3,3.5c6.2,0,10.9-3.1,12-8
		C1360,360.2,1355,358.6,1351.6,357.6z"/>
	<g>
		<path class="st7" d="M1259.7,381.7c0.1-0.3,0.3-0.6,0.5-0.8c0.2-0.3,0.5-0.5,0.7-0.7c0.3-0.2,0.5-0.3,0.9-0.4
			c0.5-0.2,1-0.2,1.6-0.1c0.2,0,0.4,0.1,0.5,0.2c0.2,0.1,0.3,0.2,0.4,0.4c0.1,0.2,0.2,0.4,0.3,0.6l0.1,0.2l0.9-0.4l0-0.1
			c-0.1-0.3-0.2-0.5-0.3-0.8c-0.1-0.2-0.3-0.4-0.5-0.6c-0.2-0.2-0.5-0.3-0.8-0.4c-0.3-0.1-0.6-0.1-1-0.1c-0.7,0-1.3,0.2-1.9,0.4
			c-0.6,0.3-1.1,0.7-1.5,1.1c-0.4,0.5-0.7,1-1,1.6c-0.2,0.6-0.4,1.1-0.4,1.7c0,0.4,0.1,0.9,0.2,1.3c0.1,0.4,0.3,0.8,0.6,1.1
			c0.2,0.3,0.6,0.6,0.9,0.8c0.4,0.2,0.8,0.3,1.3,0.3c0.3,0,0.6,0,1-0.1c0.3-0.1,0.7-0.2,1-0.4c0.3-0.2,0.6-0.4,0.9-0.6
			c0.3-0.2,0.5-0.5,0.7-0.8l0.1-0.2l-0.8-0.4l-0.1,0.1c-0.2,0.3-0.4,0.5-0.6,0.7c-0.2,0.2-0.4,0.3-0.7,0.5c-0.2,0.1-0.5,0.2-0.7,0.3
			c-0.6,0.1-1.1,0.1-1.5-0.1c-0.3-0.1-0.5-0.3-0.7-0.6c-0.2-0.2-0.3-0.5-0.4-0.8c-0.1-0.3-0.2-0.7-0.2-1c0-0.3,0-0.6,0.1-0.9
			S1259.5,382,1259.7,381.7z"/>
		<path class="st7" d="M1267.2,384.3c0.3,0,0.5,0,0.8,0c2.1,0,3.2-0.6,3.2-1.9c0-0.3-0.1-0.5-0.2-0.8c-0.1-0.2-0.3-0.4-0.5-0.5
			c-0.2-0.1-0.4-0.3-0.6-0.3c-0.2-0.1-0.5-0.1-0.7-0.1c-0.5,0-1,0.1-1.4,0.3c-0.4,0.2-0.8,0.5-1.1,0.8c-0.3,0.3-0.6,0.7-0.8,1.2
			c-0.2,0.4-0.3,0.9-0.3,1.4c0,0.4,0.1,0.7,0.2,1c0.1,0.3,0.3,0.6,0.5,0.8c0.2,0.2,0.5,0.4,0.8,0.6c0.3,0.1,0.6,0.2,1,0.2
			c0.3,0,0.5,0,0.8-0.1c0.3-0.1,0.5-0.2,0.8-0.3c0.2-0.1,0.5-0.3,0.7-0.5c0.2-0.2,0.4-0.4,0.5-0.6l0.1-0.2l-0.8-0.3l-0.1,0.1
			c-0.1,0.2-0.2,0.3-0.3,0.4c-0.1,0.1-0.3,0.2-0.5,0.3c-0.2,0.1-0.3,0.2-0.5,0.2c-0.5,0.1-0.9,0.1-1.2-0.1c-0.2-0.1-0.4-0.2-0.5-0.4
			c-0.1-0.2-0.2-0.4-0.3-0.6c-0.1-0.2-0.1-0.5-0.1-0.7c0-0.1,0-0.1,0-0.2C1266.8,384.3,1267,384.3,1267.2,384.3z M1269.8,383.2
			c-0.2,0.1-0.4,0.2-0.7,0.2c-0.5,0.1-1.1,0.1-1.8,0.1c-0.2,0-0.4,0-0.6,0c0.1-0.2,0.2-0.4,0.3-0.6c0.2-0.3,0.3-0.5,0.6-0.7
			c0.2-0.2,0.5-0.4,0.7-0.5c0.4-0.2,0.9-0.2,1.3-0.1c0.1,0,0.3,0.1,0.4,0.2c0.1,0.1,0.2,0.2,0.2,0.3c0.1,0.1,0.1,0.2,0.1,0.4
			s0,0.3-0.1,0.4C1270.1,383,1270,383.1,1269.8,383.2z"/>
		<path class="st7" d="M1275.4,380.8c-0.4,0-0.8,0.1-1.3,0.4c-0.2,0.1-0.4,0.3-0.6,0.5l0.2-0.9h-0.9l-1.3,6.2h1l0.8-3.7
			c0.2-0.5,0.6-0.8,1-1.1c0.4-0.3,0.8-0.4,1.3-0.4l0.2,0l0.2-0.8l-0.2,0C1275.6,380.8,1275.5,380.8,1275.4,380.8z"/>
		<path class="st7" d="M1277.8,381.7h1.3l0.2-0.8h-1.3l0.4-2h-0.9l-0.4,2h-0.8l-0.2,0.8h0.8l-0.9,4.1c0,0.1,0,0.1,0,0.1
			c0,0,0,0.1,0,0.1c0,0.3,0.1,0.6,0.3,0.7c0.2,0.2,0.5,0.2,0.8,0.2c0.2,0,0.3,0,0.5,0c0.1,0,0.3-0.1,0.4-0.1c0.1,0,0.2-0.1,0.3-0.1
			c0.1,0,0.2-0.1,0.2-0.1l0.1-0.1l-0.1-0.9l-0.3,0.2c0,0,0,0-0.1,0c-0.1,0-0.1,0.1-0.2,0.1c-0.1,0-0.2,0.1-0.2,0.1
			c-0.2,0-0.4,0.1-0.5-0.1c0,0-0.1-0.1-0.1-0.2c0,0,0-0.1,0.1-0.4L1277.8,381.7z"/>
		<polygon class="st7" points="1281,378.5 1280.7,379.9 1281.6,379.9 1281.9,378.5 		"/>
		<polygon class="st7" points="1279.2,387 1280.1,387 1281.4,380.8 1280.5,380.8 		"/>
		<path class="st7" d="M1284.3,380.3c0.1-0.2,0.2-0.4,0.3-0.5c0.1-0.1,0.3-0.3,0.5-0.4c0.4-0.2,0.8-0.2,1.2,0
			c0.2,0.1,0.3,0.1,0.3,0.2l0.1,0.2l0.7-0.7l-0.2-0.1c0,0-0.1-0.1-0.2-0.1c-0.1-0.1-0.2-0.1-0.3-0.2c-0.1-0.1-0.3-0.1-0.4-0.1
			c-0.2,0-0.4-0.1-0.6-0.1c-0.4,0-0.7,0.1-1,0.2c-0.3,0.1-0.5,0.3-0.7,0.6c-0.2,0.2-0.4,0.5-0.5,0.8c-0.1,0.3-0.2,0.6-0.3,0.8l0,0
			h-0.8l-0.2,0.8h0.8l-1.1,5.3h1l1.1-5.3h1.7l-1.1,5.3h1l1.3-6.2h-2.7C1284.2,380.7,1284.3,380.5,1284.3,380.3z"/>
		<path class="st7" d="M1289,382.4c0.2-0.3,0.5-0.5,0.8-0.6c0.6-0.3,1.3-0.3,1.7,0c0.2,0.2,0.4,0.4,0.4,0.6l0.1,0.2l1-0.3l0-0.2
			c-0.1-0.5-0.4-0.8-0.7-1.1c-0.4-0.3-0.8-0.4-1.4-0.4c-0.5,0-1,0.1-1.4,0.3c-0.4,0.2-0.8,0.5-1.1,0.8c-0.3,0.3-0.6,0.7-0.8,1.2
			c-0.2,0.4-0.3,0.9-0.3,1.4c0,0.4,0.1,0.7,0.2,1c0.1,0.3,0.3,0.6,0.5,0.8c0.2,0.2,0.5,0.4,0.7,0.6c0.3,0.1,0.6,0.2,1,0.2
			c0.3,0,0.5,0,0.8-0.1c0.3-0.1,0.5-0.2,0.8-0.3c0.2-0.1,0.5-0.3,0.6-0.5c0.2-0.2,0.4-0.4,0.5-0.6l0.1-0.2l-0.9-0.3l-0.1,0.1
			c-0.1,0.1-0.2,0.2-0.3,0.4c-0.1,0.1-0.3,0.2-0.4,0.3c-0.2,0.1-0.3,0.2-0.5,0.2c-0.4,0.1-0.8,0.1-1.1-0.1c-0.2-0.1-0.3-0.2-0.5-0.4
			c-0.1-0.2-0.2-0.4-0.3-0.6c-0.1-0.2-0.1-0.5-0.1-0.7c0-0.4,0.1-0.7,0.2-1.1C1288.6,383,1288.8,382.7,1289,382.4z"/>
		<path class="st7" d="M1299.6,380.8h-1l-0.2,0.9c0,0,0,0,0,0c-0.1-0.2-0.3-0.3-0.4-0.5c-0.2-0.1-0.4-0.2-0.6-0.3
			c-0.2-0.1-0.5-0.1-0.7-0.1c-0.5,0-0.9,0.1-1.3,0.3c-0.4,0.2-0.8,0.5-1.1,0.8c-0.3,0.3-0.6,0.7-0.7,1.2c-0.2,0.4-0.3,0.9-0.3,1.4
			c0,0.3,0,0.7,0.1,1c0.1,0.3,0.2,0.6,0.4,0.8c0.2,0.2,0.4,0.4,0.7,0.6c0.3,0.1,0.6,0.2,0.9,0.2c0.5,0,0.9-0.1,1.4-0.4
			c0.2-0.1,0.5-0.3,0.7-0.5c0,0,0,0,0,0.1c0,0,0,0.1,0,0.1c0,0.2,0.1,0.3,0.2,0.4c0.1,0.1,0.3,0.2,0.6,0.2c0,0,0.1,0,0.1,0l0.1,0
			l0.1-0.6l0-0.2h-0.2c0,0,0,0,0-0.1L1299.6,380.8z M1296.3,386.1c-0.5,0.2-0.8,0.1-1.2,0c-0.2-0.1-0.3-0.2-0.5-0.4
			c-0.1-0.2-0.2-0.4-0.3-0.6c-0.1-0.2-0.1-0.5-0.1-0.7c0-0.3,0.1-0.7,0.2-1c0.1-0.3,0.3-0.6,0.5-0.9c0.2-0.3,0.5-0.5,0.8-0.6
			c0.3-0.2,0.6-0.2,0.9-0.2c0.2,0,0.4,0,0.5,0.1c0.2,0.1,0.3,0.2,0.5,0.3c0.1,0.1,0.3,0.3,0.3,0.4c0.1,0.2,0.1,0.3,0.2,0.5l-0.4,1.8
			c-0.1,0.2-0.2,0.4-0.3,0.5c-0.2,0.2-0.3,0.3-0.5,0.5C1296.8,385.9,1296.6,386,1296.3,386.1z"/>
		<path class="st7" d="M1305.4,386l1.6-7.5h-1l-0.7,3.2c0,0,0,0,0,0c-0.1-0.2-0.3-0.3-0.4-0.5c-0.2-0.1-0.4-0.2-0.6-0.3
			c-0.6-0.2-1.4-0.1-2,0.2c-0.4,0.2-0.8,0.5-1.1,0.8c-0.3,0.3-0.6,0.7-0.7,1.2c-0.2,0.4-0.3,0.9-0.3,1.4c0,0.3,0,0.7,0.1,1
			c0.1,0.3,0.2,0.6,0.4,0.8c0.2,0.2,0.4,0.4,0.7,0.6c0.3,0.1,0.6,0.2,1,0.2c0.4,0,0.9-0.1,1.3-0.4c0.2-0.1,0.5-0.3,0.7-0.5l0,0.1
			c0,0,0,0.1,0,0.1c0,0.3,0.2,0.5,0.6,0.6h0.1c0,0,0.1,0,0.2,0l0.1,0l0.1-0.6l0-0.2L1305.4,386
			C1305.4,386.1,1305.4,386.1,1305.4,386z M1303.2,386.1c-0.5,0.2-0.9,0.1-1.2,0c-0.2-0.1-0.3-0.2-0.5-0.4c-0.1-0.2-0.2-0.4-0.3-0.6
			c-0.1-0.2-0.1-0.5-0.1-0.7c0-0.3,0.1-0.6,0.2-1c0.1-0.3,0.3-0.6,0.5-0.9c0.2-0.3,0.5-0.5,0.8-0.6c0.3-0.2,0.6-0.2,0.9-0.2
			c0.2,0,0.3,0,0.5,0.1c0.2,0.1,0.3,0.2,0.5,0.3c0.1,0.1,0.2,0.3,0.3,0.4c0.1,0.2,0.1,0.3,0.2,0.5l-0.4,1.8
			c-0.1,0.2-0.2,0.4-0.3,0.5c-0.2,0.2-0.3,0.3-0.5,0.5C1303.6,385.9,1303.4,386,1303.2,386.1z"/>
		<path class="st7" d="M1312.3,381.5c-0.2-0.2-0.4-0.4-0.7-0.6c-0.7-0.3-1.6-0.3-2.3,0.1c-0.4,0.2-0.8,0.5-1.1,0.8
			c-0.3,0.3-0.6,0.7-0.8,1.2c-0.2,0.5-0.3,0.9-0.3,1.4c0,0.4,0.1,0.7,0.2,1c0.1,0.3,0.3,0.6,0.5,0.8c0.2,0.2,0.4,0.4,0.7,0.6
			c0.3,0.1,0.6,0.2,1,0.2c0.5,0,0.9-0.1,1.4-0.3c0.4-0.2,0.8-0.5,1.1-0.8c0.3-0.3,0.6-0.7,0.8-1.2c0.2-0.5,0.3-0.9,0.3-1.4
			c0-0.4-0.1-0.7-0.2-1C1312.6,382,1312.5,381.8,1312.3,381.5z M1311.9,383.4c0,0.4-0.1,0.7-0.2,1c-0.2,0.3-0.3,0.6-0.6,0.9
			c-0.2,0.3-0.5,0.5-0.8,0.6c-0.5,0.3-1.1,0.3-1.5,0.1c-0.2-0.1-0.3-0.2-0.5-0.4c-0.1-0.2-0.2-0.3-0.3-0.6c-0.1-0.2-0.1-0.5-0.1-0.7
			c0-0.4,0.1-0.7,0.2-1.1c0.1-0.3,0.3-0.6,0.6-0.9c0.2-0.3,0.5-0.5,0.8-0.6c0.3-0.1,0.6-0.2,0.9-0.2c0.2,0,0.4,0,0.6,0.1
			c0.2,0.1,0.3,0.2,0.5,0.4c0.1,0.2,0.2,0.4,0.3,0.6C1311.9,382.9,1311.9,383.2,1311.9,383.4z"/>
		<path class="st7" d="M1315.4,381.9c0.1-0.1,0.3-0.2,0.5-0.2c0.5-0.1,1-0.1,1.4,0.1c0.2,0.1,0.4,0.2,0.5,0.4l0.1,0.2l0.7-0.5
			l-0.1-0.1c-0.1-0.3-0.4-0.5-0.7-0.7c-0.3-0.2-0.7-0.2-1.2-0.2c-0.3,0-0.7,0-1,0.1c-0.3,0.1-0.6,0.2-0.8,0.4
			c-0.2,0.2-0.4,0.4-0.6,0.7c-0.1,0.3-0.2,0.6-0.2,0.9c0,0.2,0,0.4,0.1,0.5c0.1,0.1,0.2,0.3,0.4,0.4c0.1,0.1,0.3,0.2,0.5,0.2
			c0.2,0.1,0.4,0.1,0.7,0.2c0.5,0.1,0.8,0.2,1.1,0.4c0.2,0.1,0.3,0.2,0.3,0.4c0,0.2,0,0.3-0.1,0.5c-0.1,0.1-0.2,0.3-0.3,0.4
			c-0.1,0.1-0.3,0.2-0.5,0.2c-0.2,0.1-0.4,0.1-0.7,0.1c-0.3,0-0.7-0.1-0.9-0.2c-0.3-0.1-0.5-0.3-0.7-0.6l-0.1-0.2l-0.6,0.7l0.1,0.1
			c0.2,0.3,0.6,0.6,1,0.7c0.4,0.2,0.8,0.2,1.2,0.2c0.4,0,0.7-0.1,1.1-0.2c0.3-0.1,0.6-0.3,0.9-0.4c0.2-0.2,0.4-0.4,0.6-0.7
			c0.1-0.3,0.2-0.6,0.2-0.9c0-0.2,0-0.4-0.1-0.6c-0.1-0.2-0.2-0.3-0.4-0.4c-0.2-0.1-0.4-0.2-0.6-0.3c-0.2-0.1-0.5-0.2-0.8-0.2
			c-0.2-0.1-0.4-0.1-0.5-0.1c-0.1,0-0.2-0.1-0.3-0.1c-0.1,0-0.1-0.1-0.2-0.2c0-0.1,0-0.1,0-0.2c0-0.2,0-0.4,0.1-0.5
			C1315.1,382.1,1315.3,382,1315.4,381.9z"/>
		<polygon class="st7" points="1327.5,383.2 1327.7,382.3 1323.9,382.3 1324.5,379.6 1328.8,379.6 1329,378.7 1323.7,378.7 
			1322,387 1327.3,387 1327.5,386.1 1323.1,386.1 1323.7,383.2 		"/>
		<path class="st7" d="M1329.8,385.7l1.5-7.2h-1l-1.5,7.3c0,0.1,0,0.2,0,0.3c0,0.3,0.1,0.5,0.3,0.7c0.2,0.2,0.4,0.3,0.7,0.3
			c0.1,0,0.3,0,0.5-0.1c0.2,0,0.4-0.1,0.5-0.1l0.1,0V386l-0.3,0.1c-0.1,0-0.2,0.1-0.3,0.1c-0.3,0-0.4,0-0.5-0.1
			c-0.1-0.1-0.1-0.1-0.1-0.2C1329.8,385.8,1329.8,385.8,1329.8,385.7C1329.8,385.8,1329.8,385.7,1329.8,385.7z"/>
		<path class="st7" d="M1333.4,384.3c0.3,0,0.5,0,0.8,0c2.1,0,3.2-0.6,3.2-1.9c0-0.3-0.1-0.5-0.2-0.8c-0.1-0.2-0.3-0.4-0.5-0.5
			c-0.2-0.1-0.4-0.3-0.6-0.3c-0.2-0.1-0.5-0.1-0.7-0.1c-0.5,0-1,0.1-1.4,0.3c-0.4,0.2-0.8,0.5-1.1,0.8c-0.3,0.3-0.6,0.7-0.8,1.2
			c-0.2,0.4-0.3,0.9-0.3,1.4c0,0.4,0.1,0.7,0.2,1c0.1,0.3,0.3,0.6,0.5,0.8c0.2,0.2,0.5,0.4,0.8,0.6c0.3,0.1,0.6,0.2,1,0.2
			c0.3,0,0.5,0,0.8-0.1c0.3-0.1,0.5-0.2,0.8-0.3c0.2-0.1,0.5-0.3,0.7-0.5c0.2-0.2,0.4-0.4,0.5-0.6l0.1-0.2l-0.8-0.3l-0.1,0.1
			c-0.1,0.2-0.2,0.3-0.3,0.4c-0.1,0.1-0.3,0.2-0.5,0.3c-0.2,0.1-0.3,0.2-0.5,0.2c-0.5,0.1-0.9,0.1-1.2-0.1c-0.2-0.1-0.4-0.2-0.5-0.4
			c-0.1-0.2-0.2-0.4-0.3-0.6c-0.1-0.2-0.1-0.5-0.1-0.7c0-0.1,0-0.1,0-0.2C1332.9,384.3,1333.2,384.3,1333.4,384.3z M1336,383.2
			c-0.2,0.1-0.4,0.2-0.7,0.2c-0.5,0.1-1.1,0.1-1.8,0.1c-0.2,0-0.4,0-0.6,0c0.1-0.2,0.2-0.4,0.3-0.6c0.2-0.3,0.3-0.5,0.6-0.7
			c0.2-0.2,0.5-0.4,0.7-0.5c0.4-0.2,0.9-0.2,1.3-0.1c0.1,0,0.3,0.1,0.4,0.2c0.1,0.1,0.2,0.2,0.2,0.3c0.1,0.1,0.1,0.2,0.1,0.4
			s0,0.3-0.1,0.4C1336.3,383,1336.2,383.1,1336,383.2z"/>
		<path class="st7" d="M1339.6,382.4c0.2-0.3,0.5-0.5,0.8-0.6c0.6-0.3,1.3-0.3,1.7,0c0.2,0.2,0.4,0.4,0.4,0.6l0.1,0.2l1-0.3l0-0.2
			c-0.1-0.5-0.4-0.8-0.7-1.1c-0.4-0.3-0.8-0.4-1.4-0.4c-0.5,0-1,0.1-1.4,0.3c-0.4,0.2-0.8,0.5-1.1,0.8c-0.3,0.3-0.6,0.7-0.8,1.2
			c-0.2,0.4-0.3,0.9-0.3,1.4c0,0.4,0.1,0.7,0.2,1c0.1,0.3,0.3,0.6,0.5,0.8c0.2,0.2,0.5,0.4,0.7,0.6c0.3,0.1,0.6,0.2,1,0.2
			c0.3,0,0.5,0,0.8-0.1c0.3-0.1,0.5-0.2,0.8-0.3c0.2-0.1,0.5-0.3,0.6-0.5c0.2-0.2,0.4-0.4,0.5-0.6l0.1-0.2l-0.9-0.3l-0.1,0.1
			c-0.1,0.1-0.2,0.2-0.3,0.4c-0.1,0.1-0.3,0.2-0.4,0.3c-0.2,0.1-0.3,0.2-0.5,0.2c-0.4,0.1-0.8,0.1-1.1-0.1c-0.2-0.1-0.3-0.2-0.5-0.4
			c-0.1-0.2-0.2-0.4-0.3-0.6c-0.1-0.2-0.1-0.5-0.1-0.7c0-0.4,0.1-0.7,0.2-1.1C1339.2,383,1339.4,382.7,1339.6,382.4z"/>
		<path class="st7" d="M1346,381.7h1.3l0.2-0.8h-1.3l0.4-2h-0.9l-0.4,2h-0.8l-0.2,0.8h0.8l-0.9,4.1c0,0.1,0,0.1,0,0.1
			c0,0,0,0.1,0,0.1c0,0.3,0.1,0.6,0.3,0.7c0.2,0.2,0.5,0.2,0.8,0.2c0.2,0,0.3,0,0.5,0c0.1,0,0.3-0.1,0.4-0.1c0.1,0,0.2-0.1,0.3-0.1
			c0.1,0,0.2-0.1,0.2-0.1l0.1-0.1l-0.1-0.9l-0.3,0.2c0,0,0,0-0.1,0c-0.1,0-0.1,0.1-0.2,0.1c-0.1,0-0.2,0.1-0.2,0.1
			c-0.2,0-0.4,0.1-0.5-0.1c0,0-0.1-0.1-0.1-0.2c0,0,0-0.1,0.1-0.4L1346,381.7z"/>
		<path class="st7" d="M1351.5,381.7l0.2-0.8l-0.2,0c0,0-0.1,0-0.2,0c-0.4,0-0.8,0.1-1.3,0.4c-0.2,0.1-0.4,0.3-0.6,0.5l0.2-0.9h-0.9
			l-1.3,6.2h1l0.8-3.7c0.2-0.5,0.6-0.8,1-1.1c0.4-0.3,0.8-0.4,1.3-0.4L1351.5,381.7z"/>
		<path class="st7" d="M1356.6,381.5c-0.2-0.2-0.4-0.4-0.7-0.6c-0.7-0.3-1.6-0.3-2.3,0.1c-0.4,0.2-0.8,0.5-1.1,0.8
			c-0.3,0.3-0.6,0.7-0.8,1.2c-0.2,0.5-0.3,0.9-0.3,1.4c0,0.4,0.1,0.7,0.2,1c0.1,0.3,0.3,0.6,0.5,0.8c0.2,0.2,0.4,0.4,0.7,0.6
			c0.3,0.1,0.6,0.2,1,0.2c0.5,0,0.9-0.1,1.4-0.3c0.4-0.2,0.8-0.5,1.1-0.8c0.3-0.3,0.6-0.7,0.8-1.2c0.2-0.5,0.3-0.9,0.3-1.4
			c0-0.4-0.1-0.7-0.2-1C1356.9,382,1356.8,381.8,1356.6,381.5z M1356.2,383.4c0,0.4-0.1,0.7-0.2,1c-0.2,0.3-0.3,0.6-0.6,0.9
			c-0.2,0.3-0.5,0.5-0.8,0.6c-0.5,0.3-1.1,0.3-1.5,0.1c-0.2-0.1-0.3-0.2-0.5-0.4c-0.1-0.2-0.2-0.3-0.3-0.6c-0.1-0.2-0.1-0.5-0.1-0.7
			c0-0.4,0.1-0.7,0.2-1.1c0.1-0.3,0.3-0.6,0.6-0.9c0.2-0.3,0.5-0.5,0.8-0.6c0.3-0.1,0.6-0.2,0.9-0.2c0.2,0,0.4,0,0.6,0.1
			c0.2,0.1,0.3,0.2,0.5,0.4c0.1,0.2,0.2,0.4,0.3,0.6C1356.2,382.9,1356.2,383.2,1356.2,383.4z"/>
		<polygon class="st7" points="1356.7,378.5 1355.5,378.5 1354.4,379.7 1355.1,380.1 		"/>
		<path class="st7" d="M1362,380.7c-0.3,0-0.5,0-0.8,0.1c-0.3,0.1-0.5,0.2-0.8,0.3c-0.2,0.1-0.5,0.3-0.7,0.5c0,0,0,0-0.1,0.1
			l0.2-0.9h-0.9l-1.3,6.2h1l0.8-3.7c0.1-0.2,0.3-0.4,0.4-0.6c0.2-0.2,0.4-0.4,0.6-0.5c0.2-0.2,0.4-0.3,0.7-0.4
			c0.2-0.1,0.4-0.1,0.6-0.1c0.3,0,0.7,0.1,0.7,0.9c0,0.1,0,0.3,0,0.4c0,0.2,0,0.3-0.1,0.5l-0.7,3.4h1l0.7-3.5c0-0.2,0.1-0.4,0.1-0.6
			c0-0.2,0-0.4,0-0.6c0-0.5-0.1-0.9-0.3-1.2C1362.9,380.9,1362.5,380.7,1362,380.7z"/>
		<polygon class="st7" points="1365.9,378.5 1365.6,379.9 1366.5,379.9 1366.8,378.5 		"/>
		<polygon class="st7" points="1364.1,387 1365,387 1366.3,380.8 1365.4,380.8 		"/>
		<path class="st7" d="M1368.5,382.4c0.2-0.3,0.5-0.5,0.8-0.6c0.6-0.3,1.3-0.3,1.7,0c0.2,0.2,0.4,0.4,0.4,0.6l0.1,0.2l1-0.3l0-0.2
			c-0.1-0.5-0.4-0.8-0.7-1.1c-0.4-0.3-0.8-0.4-1.4-0.4c-0.5,0-1,0.1-1.4,0.3c-0.4,0.2-0.8,0.5-1.1,0.8c-0.3,0.3-0.6,0.7-0.8,1.2
			c-0.2,0.4-0.3,0.9-0.3,1.4c0,0.4,0.1,0.7,0.2,1c0.1,0.3,0.3,0.6,0.5,0.8c0.2,0.2,0.5,0.4,0.7,0.6c0.3,0.1,0.6,0.2,1,0.2
			c0.3,0,0.5,0,0.8-0.1c0.3-0.1,0.5-0.2,0.8-0.3c0.2-0.1,0.5-0.3,0.6-0.5c0.2-0.2,0.4-0.4,0.5-0.6l0.1-0.2l-0.9-0.3l-0.1,0.1
			c-0.1,0.1-0.2,0.2-0.3,0.4c-0.1,0.1-0.3,0.2-0.4,0.3c-0.2,0.1-0.3,0.2-0.5,0.2c-0.4,0.1-0.8,0.1-1.1-0.1c-0.2-0.1-0.3-0.2-0.5-0.4
			c-0.1-0.2-0.2-0.4-0.3-0.6c-0.1-0.2-0.1-0.5-0.1-0.7c0-0.4,0.1-0.7,0.2-1.1C1368.1,383,1368.3,382.7,1368.5,382.4z"/>
		<path class="st7" d="M1378.1,381.5c-0.2-0.2-0.4-0.4-0.7-0.6c-0.7-0.3-1.6-0.3-2.3,0.1c-0.4,0.2-0.8,0.5-1.1,0.8
			c-0.3,0.3-0.6,0.7-0.8,1.2c-0.2,0.5-0.3,0.9-0.3,1.4c0,0.4,0.1,0.7,0.2,1c0.1,0.3,0.3,0.6,0.5,0.8c0.2,0.2,0.4,0.4,0.7,0.6
			c0.3,0.1,0.6,0.2,1,0.2c0.5,0,0.9-0.1,1.4-0.3c0.4-0.2,0.8-0.5,1.1-0.8c0.3-0.3,0.6-0.7,0.8-1.2c0.2-0.5,0.3-0.9,0.3-1.4
			c0-0.4-0.1-0.7-0.2-1C1378.4,382,1378.3,381.8,1378.1,381.5z M1377.7,383.4c0,0.4-0.1,0.7-0.2,1c-0.2,0.3-0.3,0.6-0.6,0.9
			c-0.2,0.3-0.5,0.5-0.8,0.6c-0.5,0.3-1.1,0.3-1.5,0.1c-0.2-0.1-0.3-0.2-0.5-0.4c-0.1-0.2-0.2-0.3-0.3-0.6c-0.1-0.2-0.1-0.5-0.1-0.7
			c0-0.4,0.1-0.7,0.2-1.1c0.1-0.3,0.3-0.6,0.6-0.9c0.2-0.3,0.5-0.5,0.8-0.6c0.3-0.1,0.6-0.2,0.9-0.2c0.2,0,0.4,0,0.6,0.1
			c0.2,0.1,0.3,0.2,0.5,0.4c0.1,0.2,0.2,0.4,0.3,0.6C1377.7,382.9,1377.7,383.2,1377.7,383.4z"/>
		<path class="st7" d="M1383.3,383.9c-0.2-0.1-0.4-0.2-0.6-0.3c-0.2-0.1-0.5-0.2-0.8-0.2c-0.2-0.1-0.4-0.1-0.5-0.1
			c-0.1,0-0.2-0.1-0.3-0.1c-0.1,0-0.1-0.1-0.2-0.2c0-0.1,0-0.1,0-0.2c0-0.2,0-0.4,0.1-0.5c0.1-0.1,0.2-0.3,0.3-0.4
			c0.1-0.1,0.3-0.2,0.5-0.2c0.5-0.1,1-0.1,1.4,0.1c0.2,0.1,0.4,0.2,0.5,0.4l0.1,0.2l0.7-0.5l-0.1-0.1c-0.1-0.3-0.4-0.5-0.7-0.7
			c-0.3-0.2-0.7-0.2-1.2-0.2c-0.3,0-0.7,0-1,0.1c-0.3,0.1-0.6,0.2-0.8,0.4c-0.2,0.2-0.4,0.4-0.6,0.7c-0.1,0.3-0.2,0.6-0.2,0.9
			c0,0.2,0,0.4,0.1,0.5c0.1,0.1,0.2,0.3,0.4,0.4c0.1,0.1,0.3,0.2,0.5,0.2c0.2,0.1,0.4,0.1,0.7,0.2c0.5,0.1,0.8,0.2,1.1,0.4
			c0.2,0.1,0.3,0.2,0.3,0.4c0,0.2,0,0.3-0.1,0.5c-0.1,0.1-0.2,0.3-0.3,0.4c-0.1,0.1-0.3,0.2-0.5,0.2c-0.2,0.1-0.4,0.1-0.7,0.1
			c-0.3,0-0.7-0.1-0.9-0.2c-0.3-0.1-0.5-0.3-0.7-0.6l-0.1-0.2l-0.6,0.7l0.1,0.1c0.2,0.3,0.6,0.6,1,0.7c0.4,0.2,0.8,0.2,1.2,0.2
			c0.4,0,0.7-0.1,1.1-0.2c0.3-0.1,0.6-0.3,0.9-0.4c0.2-0.2,0.4-0.4,0.6-0.7c0.1-0.3,0.2-0.6,0.2-0.9c0-0.2,0-0.4-0.1-0.6
			C1383.6,384.2,1383.4,384.1,1383.3,383.9z"/>
	</g>
	<path class="st7" d="M1384,374.6c0,0-27.2,0-32,0c7-1.5,8.8-7,8.8-10c2.8,0,25.7,0,25.7,0L1384,374.6z"/>
	<g>
		<path class="st6" d="M1361.5,370.8c-0.5,0-1,0.4-1.1,0.9c-0.1,0.3,0,0.5,0.1,0.7c0.1,0.2,0.3,0.3,0.6,0.3c0.5,0,1-0.4,1.1-0.9
			c0.1-0.3,0-0.5-0.1-0.7C1362,370.8,1361.8,370.8,1361.5,370.8z"/>
		<path class="st6" d="M1366.4,370.5c-0.3,0.3-0.6,0.5-1,0.5c-0.2,0-0.4-0.1-0.5-0.2c-0.1-0.2-0.2-0.5-0.1-0.9
			c0.2-0.7,0.7-1.1,1.2-1.1c0.4,0,0.6,0.1,0.8,0.4l0.1,0.1l1.5-0.8l0-0.1c-0.3-0.8-1-1.2-2.1-1.2c-1.6,0-2.9,1.1-3.3,2.6
			c-0.2,0.8-0.1,1.5,0.3,1.9c0.4,0.5,1,0.7,1.8,0.7c1.1,0,2-0.4,2.6-1.2l0.1-0.1L1366.4,370.5L1366.4,370.5z"/>
		<path class="st6" d="M1373.1,368c-0.4-0.5-1.1-0.8-1.9-0.8c-1.7,0-3.1,1.1-3.5,2.6c-0.2,0.8-0.1,1.4,0.3,1.9
			c0.4,0.5,1.1,0.8,1.9,0.8c1.7,0,3.1-1.1,3.5-2.6C1373.6,369.1,1373.5,368.5,1373.1,368z M1369.6,369.9c0.2-0.7,0.7-1.2,1.3-1.2
			c0.2,0,0.4,0.1,0.6,0.2c0.2,0.2,0.2,0.5,0.1,0.9c-0.2,0.7-0.7,1.2-1.3,1.2c-0.2,0-0.4-0.1-0.6-0.2
			C1369.5,370.6,1369.5,370.3,1369.6,369.9z"/>
		<path class="st6" d="M1382.5,367.7c-0.3-0.3-0.7-0.5-1.2-0.5c-0.8,0-1.4,0.3-1.9,0.9c-0.2-0.6-0.7-0.9-1.5-0.9
			c-0.6,0-1.2,0.2-1.6,0.6l0.1-0.5h-1.9l-1.3,5.2h1.9l0.6-2.6c0.2-0.6,0.6-1.1,1.1-1.1c0.2,0,0.3,0.1,0.4,0.2
			c0.1,0.1,0.1,0.3,0.1,0.6l-0.7,2.8h1.9l0.6-2.6c0.2-0.6,0.6-1.1,1.1-1.1c0.2,0,0.3,0.1,0.4,0.2c0.1,0.1,0.1,0.3,0.1,0.6l-0.7,2.8
			h1.9l0.8-3.2C1382.8,368.6,1382.8,368.1,1382.5,367.7z"/>
	</g>
	<path class="st7" d="M1186.3,362.3c0,0-4.1,4-9.2,4c-2.3,0-4.3-0.9-5.6-2.4c-1.3-1.6-1.8-3.9-1.2-6.4c1.1-5.1,5.8-9,10.9-9
		c2.6,0,5.2,1.4,6.7,3.8l0.6,0.9c0,0,3-4.1,6.2-5.7c-0.1-0.2-0.6-0.9-0.6-0.9c-2.5-3.3-7-5.4-11.7-5.4c-9.8,0-18.6,7-20.6,16.3
		c-1,4.6-0.1,8.8,2.4,11.9c2.5,3.1,6.5,4.8,11.2,4.8c3.9,0,8.6-1.6,12.4-4.2C1186.2,366.8,1186.3,362.3,1186.3,362.3z"/>
	<path class="st9" d="M1335.8,351c-1.5-1.9-4.2-2.8-7.8-2.8c-4.1,0-7.9,0.8-11.3,2.2c-0.6,3.3-1.7,6.8-1.7,6.8s6.3-2.2,10.3-2.3
		c1.5,0,2.6,0.3,3.2,1c0.4,0.5,0.5,1.2,0.3,2.1h-6.1c-6.1,0-10.2,2.9-11.3,7.7c-0.5,2.3-0.1,4.3,1.1,5.8c1.3,1.6,3.4,2.5,6.2,2.5
		c2.7,0,5.2-0.7,7.1-2.1l-0.4,1.8h8.1l3.4-16.1C1337.6,354.8,1337.2,352.6,1335.8,351z M1321.8,367.7c-1,0-1.8-0.3-2.2-0.8
		c-0.3-0.4-0.4-0.9-0.3-1.5c0.2-1.1,0.9-2.2,3.8-2.2h4.6l-0.3,1.3C1326.7,366.4,1324.3,367.7,1321.8,367.7z"/>
	<path class="st7" d="M1236.1,348.4c-2.9,0-5.6,1-7.7,3l0.6-2.8h-8.2l-5.3,25.2h8.2l2.5-12c0.8-3.9,3.9-6.2,9.8-6.1
		c0.6-2.8,1.7-7.4,1.7-7.4L1236.1,348.4z"/>
	<path class="st7" d="M1246.1,355.7h6.5l1.6-7.4h-6.5l1.1-5.3h-8.1l-4.8,22.9c-0.5,2.4-0.2,4.5,1,5.9c1.2,1.5,3.1,2.2,5.6,2.2
		c1.9,0,3.9-0.4,5.8-1.2l0,0c0,0,0,0,0.1,0c0.3-0.1,0.7-0.3,1-0.5l0.1-0.1c0.1,0,0.1-0.1,0.2-0.1l1.6-7.3c0,0-1.5,0.7-2.5,1.2
		l-0.3,0.1c-1.3,0.6-2.4,0.8-3.2,0.8c-0.5,0-0.8-0.1-1-0.3c-0.2-0.3-0.3-0.9-0.1-1.7L1246.1,355.7z"/>
</g>
</svg>
